solid OpenSCAD_Model
  facet normal -1 0 0
    outer loop
      vertex 0 -81 15.4019
      vertex 0 -75 30
      vertex 0 -75 15.4019
    endloop
  endfacet
  facet normal -1 -0 0
    outer loop
      vertex 0 -75 30
      vertex 0 -81 15.4019
      vertex 0 -81 30
    endloop
  endfacet
  facet normal -1 0 0
    outer loop
      vertex 0 -11 15.4019
      vertex 0 6.66134e-15 30
      vertex 0 3.4199e-15 15.4019
    endloop
  endfacet
  facet normal -1 -0 0
    outer loop
      vertex 0 6.66134e-15 30
      vertex 0 -11 15.4019
      vertex 0 -11 30
    endloop
  endfacet
  facet normal 0 -1 0
    outer loop
      vertex 0 -81 15.4019
      vertex 7.83896 -81 12.494
      vertex 9.53036 -81 13.2664
    endloop
  endfacet
  facet normal 0 -1 0
    outer loop
      vertex 0 -81 15.4019
      vertex 6.83367 -81 10.9297
      vertex 7.83896 -81 12.494
    endloop
  endfacet
  facet normal 0 -1 0
    outer loop
      vertex 5.11959 -81 6.53449
      vertex 6.83367 -81 10.9297
      vertex 0 -81 15.4019
    endloop
  endfacet
  facet normal 0 -1 -0
    outer loop
      vertex 6.83367 -81 10.9297
      vertex 5.11959 -81 6.53449
      vertex 6.83367 -81 9.07028
    endloop
  endfacet
  facet normal 0 -1 -0
    outer loop
      vertex 7.83896 -81 7.50603
      vertex 5.11959 -81 6.53449
      vertex 9.53036 -81 6.73359
    endloop
  endfacet
  facet normal 0 -1 -0
    outer loop
      vertex 6.83367 -81 9.07028
      vertex 5.11959 -81 6.53449
      vertex 7.83896 -81 7.50603
    endloop
  endfacet
  facet normal 0 -1 0
    outer loop
      vertex 9.53036 -81 13.2664
      vertex 0 -81 30
      vertex 0 -81 15.4019
    endloop
  endfacet
  facet normal 0 -1 0
    outer loop
      vertex 11.3709 -81 13.0018
      vertex 0 -81 30
      vertex 9.53036 -81 13.2664
    endloop
  endfacet
  facet normal 0 -1 0
    outer loop
      vertex 0 -81 30
      vertex 11.3709 -81 13.0018
      vertex 30 -81 30
    endloop
  endfacet
  facet normal 0 -1 0
    outer loop
      vertex 12.7761 -81 11.7841
      vertex 30 -81 30
      vertex 11.3709 -81 13.0018
    endloop
  endfacet
  facet normal 0 -1 0
    outer loop
      vertex 13.3 -81 10
      vertex 30 -81 30
      vertex 12.7761 -81 11.7841
    endloop
  endfacet
  facet normal 0 -1 0
    outer loop
      vertex 30 -81 1.79856e-14
      vertex 13.3 -81 10
      vertex 12.7761 -81 8.21589
    endloop
  endfacet
  facet normal 0 -1 0
    outer loop
      vertex 11.0033 -81 1.79856e-14
      vertex 9.53036 -81 6.73359
      vertex 5.11959 -81 6.53449
    endloop
  endfacet
  facet normal 0 -1 0
    outer loop
      vertex 11.0033 -81 1.79856e-14
      vertex 11.3709 -81 6.99821
      vertex 9.53036 -81 6.73359
    endloop
  endfacet
  facet normal 0 -1 0
    outer loop
      vertex 11.0033 -81 1.79856e-14
      vertex 12.7761 -81 8.21589
      vertex 11.3709 -81 6.99821
    endloop
  endfacet
  facet normal 0 -1 0
    outer loop
      vertex 30 -81 1.79856e-14
      vertex 12.7761 -81 8.21589
      vertex 11.0033 -81 1.79856e-14
    endloop
  endfacet
  facet normal 0 -1 0
    outer loop
      vertex 13.3 -81 10
      vertex 30 -81 1.79856e-14
      vertex 30 -81 30
    endloop
  endfacet
  facet normal 1 -0 0
    outer loop
      vertex 30 -81 30
      vertex 30 -75 1.66533e-14
      vertex 30 -75 30
    endloop
  endfacet
  facet normal 1 0 0
    outer loop
      vertex 30 -75 1.66533e-14
      vertex 30 -81 30
      vertex 30 -81 1.79856e-14
    endloop
  endfacet
  facet normal 0 1 -0
    outer loop
      vertex 15 -75 15
      vertex 0 -75 30
      vertex 30 -75 30
    endloop
  endfacet
  facet normal 0 1 0
    outer loop
      vertex 0 -75 30
      vertex 15 -75 15
      vertex 0 -75 15.4019
    endloop
  endfacet
  facet normal 0 1 -0
    outer loop
      vertex 30 -75 1.66533e-14
      vertex 15 -75 15
      vertex 30 -75 30
    endloop
  endfacet
  facet normal 0 1 0
    outer loop
      vertex 15 -75 15
      vertex 30 -75 1.66533e-14
      vertex 15 -75 1.66533e-14
    endloop
  endfacet
  facet normal 0 1 0
    outer loop
      vertex 0 -75 15.4019
      vertex 15 -75 15
      vertex 0.232024 -75 15
    endloop
  endfacet
  facet normal 0 -2.22045e-16 -1
    outer loop
      vertex 30 -81 1.79856e-14
      vertex 15 -75 1.66533e-14
      vertex 30 -75 1.66533e-14
    endloop
  endfacet
  facet normal 0 -2.22045e-16 -1
    outer loop
      vertex 15 -75 1.66533e-14
      vertex 11.0033 -81 1.79856e-14
      vertex 15 -11 2.44249e-15
    endloop
  endfacet
  facet normal 0 -2.22045e-16 -1
    outer loop
      vertex 11.0033 -81 1.79856e-14
      vertex 15 -75 1.66533e-14
      vertex 30 -81 1.79856e-14
    endloop
  endfacet
  facet normal 0 -2.22045e-16 -1
    outer loop
      vertex 15 -11 2.44249e-15
      vertex 30 0 0
      vertex 30 -11 2.44249e-15
    endloop
  endfacet
  facet normal 0 -2.22045e-16 -1
    outer loop
      vertex 15 -11 2.44249e-15
      vertex 11.0033 0 0
      vertex 30 0 0
    endloop
  endfacet
  facet normal 0 -2.22045e-16 -1
    outer loop
      vertex 11.0033 0 0
      vertex 15 -11 2.44249e-15
      vertex 11.0033 -81 1.79856e-14
    endloop
  endfacet
  facet normal -0 0 1
    outer loop
      vertex 0 -75 30
      vertex 30 -81 30
      vertex 30 -75 30
    endloop
  endfacet
  facet normal 0 0 1
    outer loop
      vertex 30 -81 30
      vertex 0 -75 30
      vertex 0 -81 30
    endloop
  endfacet
  facet normal -0.959493 0 -0.281732
    outer loop
      vertex 13.3 -81 10
      vertex 12.7761 -78.4 11.7841
      vertex 13.3 -78.4 10
    endloop
  endfacet
  facet normal -0.959493 -0 -0.281732
    outer loop
      vertex 12.7761 -78.4 11.7841
      vertex 13.3 -81 10
      vertex 12.7761 -81 11.7841
    endloop
  endfacet
  facet normal 1 -0 0
    outer loop
      vertex 6.83367 -81 10.9297
      vertex 6.83367 -78.4 9.07028
      vertex 6.83367 -78.4 10.9297
    endloop
  endfacet
  facet normal 1 0 0
    outer loop
      vertex 6.83367 -78.4 9.07028
      vertex 6.83367 -81 10.9297
      vertex 6.83367 -81 9.07028
    endloop
  endfacet
  facet normal 0 -1 0
    outer loop
      vertex 7.83896 -78.4 12.494
      vertex 11.3709 -78.4 13.0018
      vertex 9.53036 -78.4 13.2664
    endloop
  endfacet
  facet normal 0 -1 0
    outer loop
      vertex 7.83896 -78.4 12.494
      vertex 12.7761 -78.4 11.7841
      vertex 11.3709 -78.4 13.0018
    endloop
  endfacet
  facet normal 0 -1 0
    outer loop
      vertex 6.83367 -78.4 10.9297
      vertex 12.7761 -78.4 11.7841
      vertex 7.83896 -78.4 12.494
    endloop
  endfacet
  facet normal 0 -1 0
    outer loop
      vertex 6.83367 -78.4 10.9297
      vertex 13.3 -78.4 10
      vertex 12.7761 -78.4 11.7841
    endloop
  endfacet
  facet normal 0 -1 0
    outer loop
      vertex 6.83367 -78.4 9.07028
      vertex 13.3 -78.4 10
      vertex 6.83367 -78.4 10.9297
    endloop
  endfacet
  facet normal 0 -1 0
    outer loop
      vertex 6.83367 -78.4 9.07028
      vertex 12.7761 -78.4 8.21589
      vertex 13.3 -78.4 10
    endloop
  endfacet
  facet normal 0 -1 0
    outer loop
      vertex 7.83896 -78.4 7.50603
      vertex 12.7761 -78.4 8.21589
      vertex 6.83367 -78.4 9.07028
    endloop
  endfacet
  facet normal 0 -1 0
    outer loop
      vertex 7.83896 -78.4 7.50603
      vertex 11.3709 -78.4 6.99821
      vertex 12.7761 -78.4 8.21589
    endloop
  endfacet
  facet normal -0 -1 0
    outer loop
      vertex 11.3709 -78.4 6.99821
      vertex 7.83896 -78.4 7.50603
      vertex 9.53036 -78.4 6.73359
    endloop
  endfacet
  facet normal -0.142315 0 -0.989821
    outer loop
      vertex 9.53036 -81 13.2664
      vertex 11.3709 -78.4 13.0018
      vertex 11.3709 -81 13.0018
    endloop
  endfacet
  facet normal -0.142315 0 -0.989821
    outer loop
      vertex 11.3709 -78.4 13.0018
      vertex 9.53036 -81 13.2664
      vertex 9.53036 -78.4 13.2664
    endloop
  endfacet
  facet normal -0.654861 0 -0.75575
    outer loop
      vertex 11.3709 -81 13.0018
      vertex 12.7761 -78.4 11.7841
      vertex 12.7761 -81 11.7841
    endloop
  endfacet
  facet normal -0.654861 0 -0.75575
    outer loop
      vertex 12.7761 -78.4 11.7841
      vertex 11.3709 -81 13.0018
      vertex 11.3709 -78.4 13.0018
    endloop
  endfacet
  facet normal -0.654861 0 0.75575
    outer loop
      vertex 11.3709 -78.4 6.99821
      vertex 12.7761 -81 8.21589
      vertex 12.7761 -78.4 8.21589
    endloop
  endfacet
  facet normal -0.654861 0 0.75575
    outer loop
      vertex 12.7761 -81 8.21589
      vertex 11.3709 -78.4 6.99821
      vertex 11.3709 -81 6.99821
    endloop
  endfacet
  facet normal 0.841254 -0 0.540641
    outer loop
      vertex 6.83367 -81 9.07028
      vertex 7.83896 -78.4 7.50603
      vertex 6.83367 -78.4 9.07028
    endloop
  endfacet
  facet normal 0.841254 0 0.540641
    outer loop
      vertex 7.83896 -78.4 7.50603
      vertex 6.83367 -81 9.07028
      vertex 7.83896 -81 7.50603
    endloop
  endfacet
  facet normal 0.841254 0 -0.540641
    outer loop
      vertex 7.83896 -81 12.494
      vertex 6.83367 -78.4 10.9297
      vertex 7.83896 -78.4 12.494
    endloop
  endfacet
  facet normal 0.841254 0 -0.540641
    outer loop
      vertex 6.83367 -78.4 10.9297
      vertex 7.83896 -81 12.494
      vertex 6.83367 -81 10.9297
    endloop
  endfacet
  facet normal 0.415415 0 -0.909632
    outer loop
      vertex 7.83896 -81 12.494
      vertex 9.53036 -78.4 13.2664
      vertex 9.53036 -81 13.2664
    endloop
  endfacet
  facet normal 0.415415 0 -0.909632
    outer loop
      vertex 9.53036 -78.4 13.2664
      vertex 7.83896 -81 12.494
      vertex 7.83896 -78.4 12.494
    endloop
  endfacet
  facet normal -0.959493 0 0.281732
    outer loop
      vertex 12.7761 -81 8.21589
      vertex 13.3 -78.4 10
      vertex 12.7761 -78.4 8.21589
    endloop
  endfacet
  facet normal -0.959493 0 0.281732
    outer loop
      vertex 13.3 -78.4 10
      vertex 12.7761 -81 8.21589
      vertex 13.3 -81 10
    endloop
  endfacet
  facet normal 0.415415 0 0.909632
    outer loop
      vertex 7.83896 -78.4 7.50603
      vertex 9.53036 -81 6.73359
      vertex 9.53036 -78.4 6.73359
    endloop
  endfacet
  facet normal 0.415415 0 0.909632
    outer loop
      vertex 9.53036 -81 6.73359
      vertex 7.83896 -78.4 7.50603
      vertex 7.83896 -81 7.50603
    endloop
  endfacet
  facet normal -0.142315 0 0.989821
    outer loop
      vertex 9.53036 -78.4 6.73359
      vertex 11.3709 -81 6.99821
      vertex 11.3709 -78.4 6.99821
    endloop
  endfacet
  facet normal -0.142315 0 0.989821
    outer loop
      vertex 11.3709 -81 6.99821
      vertex 9.53036 -78.4 6.73359
      vertex 9.53036 -81 6.73359
    endloop
  endfacet
  facet normal 0 -1 0
    outer loop
      vertex 15 -11 15
      vertex 0 -11 30
      vertex 0 -11 15.4019
    endloop
  endfacet
  facet normal 0 -1 0
    outer loop
      vertex 15 -11 15
      vertex 0 -11 15.4019
      vertex 0.232024 -11 15
    endloop
  endfacet
  facet normal 0 -1 0
    outer loop
      vertex 0 -11 30
      vertex 15 -11 15
      vertex 30 -11 30
    endloop
  endfacet
  facet normal 0 -1 0
    outer loop
      vertex 30 -11 2.44249e-15
      vertex 15 -11 15
      vertex 15 -11 2.44249e-15
    endloop
  endfacet
  facet normal 0 -1 0
    outer loop
      vertex 15 -11 15
      vertex 30 -11 2.44249e-15
      vertex 30 -11 30
    endloop
  endfacet
  facet normal 1 0 0
    outer loop
      vertex 30 -6 30
      vertex 30 -11 30
      vertex 30 -6 2.5
    endloop
  endfacet
  facet normal 1 0 0
    outer loop
      vertex 30 -5 2.5
      vertex 30 6.66134e-15 30
      vertex 30 -5 30
    endloop
  endfacet
  facet normal 1 0 0
    outer loop
      vertex 30 6.66134e-15 30
      vertex 30 -5 2.5
      vertex 30 0 0
    endloop
  endfacet
  facet normal 1 -0 0
    outer loop
      vertex 30 -6 2.5
      vertex 30 0 0
      vertex 30 -5 2.5
    endloop
  endfacet
  facet normal 1 0 0
    outer loop
      vertex 30 -6 2.5
      vertex 30 -11 2.44249e-15
      vertex 30 0 0
    endloop
  endfacet
  facet normal 1 0 0
    outer loop
      vertex 30 -11 2.44249e-15
      vertex 30 -6 2.5
      vertex 30 -11 30
    endloop
  endfacet
  facet normal 0 0 1
    outer loop
      vertex 30 6.66134e-15 30
      vertex 2.5 -5 30
      vertex 30 -5 30
    endloop
  endfacet
  facet normal 0 0 1
    outer loop
      vertex 2.5 -5 30
      vertex 0 6.66134e-15 30
      vertex 2.5 -6 30
    endloop
  endfacet
  facet normal -0 0 1
    outer loop
      vertex 0 6.66134e-15 30
      vertex 2.5 -5 30
      vertex 30 6.66134e-15 30
    endloop
  endfacet
  facet normal -0 0 1
    outer loop
      vertex 2.5 -6 30
      vertex 30 -11 30
      vertex 30 -6 30
    endloop
  endfacet
  facet normal 0 0 1
    outer loop
      vertex 2.5 -6 30
      vertex 0 -11 30
      vertex 30 -11 30
    endloop
  endfacet
  facet normal 0 0 1
    outer loop
      vertex 0 -11 30
      vertex 2.5 -6 30
      vertex 0 6.66134e-15 30
    endloop
  endfacet
  facet normal 0 1 -2.22045e-16
    outer loop
      vertex 17.5304 2.61267e-15 11.7664
      vertex 0 6.66134e-15 30
      vertex 30 6.66134e-15 30
    endloop
  endfacet
  facet normal 0 1 -2.22045e-16
    outer loop
      vertex 15.839 2.44115e-15 10.994
      vertex 0 6.66134e-15 30
      vertex 17.5304 2.61267e-15 11.7664
    endloop
  endfacet
  facet normal 0 1 -2.22045e-16
    outer loop
      vertex 30 6.66134e-15 30
      vertex 19.3709 2.55391e-15 11.5018
      vertex 17.5304 2.61267e-15 11.7664
    endloop
  endfacet
  facet normal 0 1 -2.22045e-16
    outer loop
      vertex 30 6.66134e-15 30
      vertex 20.7761 2.28353e-15 10.2841
      vertex 19.3709 2.55391e-15 11.5018
    endloop
  endfacet
  facet normal 0 1 -2.22045e-16
    outer loop
      vertex 30 0 0
      vertex 20.7761 2.28353e-15 10.2841
      vertex 30 6.66134e-15 30
    endloop
  endfacet
  facet normal 0 1 -2.22045e-16
    outer loop
      vertex 20.7761 2.28353e-15 10.2841
      vertex 30 0 0
      vertex 21.3 1.88738e-15 8.5
    endloop
  endfacet
  facet normal 0 1 -2.22045e-16
    outer loop
      vertex 11.0033 0 0
      vertex 19.3709 1.22085e-15 5.49821
      vertex 30 0 0
    endloop
  endfacet
  facet normal 0 1 -2.22045e-16
    outer loop
      vertex 20.7761 1.49123e-15 6.71589
      vertex 30 0 0
      vertex 19.3709 1.22085e-15 5.49821
    endloop
  endfacet
  facet normal 0 1 -2.22045e-16
    outer loop
      vertex 21.3 1.88738e-15 8.5
      vertex 30 0 0
      vertex 20.7761 1.49123e-15 6.71589
    endloop
  endfacet
  facet normal 0 1 -2.22045e-16
    outer loop
      vertex 0 6.66134e-15 30
      vertex 15.839 2.44115e-15 10.994
      vertex 0 3.4199e-15 15.4019
    endloop
  endfacet
  facet normal 0 1 -2.22045e-16
    outer loop
      vertex 14.8337 2.09382e-15 9.42972
      vertex 0 3.4199e-15 15.4019
      vertex 15.839 2.44115e-15 10.994
    endloop
  endfacet
  facet normal 0 1 -2.22045e-16
    outer loop
      vertex 5.11959 1.45095e-15 6.53449
      vertex 14.8337 2.09382e-15 9.42972
      vertex 14.8337 1.68094e-15 7.57028
    endloop
  endfacet
  facet normal 0 1 -2.22045e-16
    outer loop
      vertex 14.8337 2.09382e-15 9.42972
      vertex 5.11959 1.45095e-15 6.53449
      vertex 0 3.4199e-15 15.4019
    endloop
  endfacet
  facet normal 0 1 -2.22045e-16
    outer loop
      vertex 11.0033 0 0
      vertex 14.8337 1.68094e-15 7.57028
      vertex 15.839 1.33361e-15 6.00603
    endloop
  endfacet
  facet normal 0 1 -2.22045e-16
    outer loop
      vertex 11.0033 0 0
      vertex 15.839 1.33361e-15 6.00603
      vertex 17.5304 1.16209e-15 5.23359
    endloop
  endfacet
  facet normal 0 1 -2.22045e-16
    outer loop
      vertex 19.3709 1.22085e-15 5.49821
      vertex 11.0033 0 0
      vertex 17.5304 1.16209e-15 5.23359
    endloop
  endfacet
  facet normal 0 1 -2.22045e-16
    outer loop
      vertex 14.8337 1.68094e-15 7.57028
      vertex 11.0033 0 0
      vertex 5.11959 1.45095e-15 6.53449
    endloop
  endfacet
  facet normal 1 -0 0
    outer loop
      vertex 2.5 -6 30
      vertex 2.5 -5 11.0717
      vertex 2.5 -5 30
    endloop
  endfacet
  facet normal 1 0 0
    outer loop
      vertex 2.5 -5 11.0717
      vertex 2.5 -6 30
      vertex 2.5 -6 11.0717
    endloop
  endfacet
  facet normal 0 1 0
    outer loop
      vertex 30 -6 30
      vertex 2.5 -6 11.0717
      vertex 2.5 -6 30
    endloop
  endfacet
  facet normal 0 1 0
    outer loop
      vertex 30 -6 30
      vertex 5.11959 -6 6.53449
      vertex 2.5 -6 11.0717
    endloop
  endfacet
  facet normal 0 1 -0
    outer loop
      vertex 30 -6 2.5
      vertex 5.11959 -6 6.53449
      vertex 30 -6 30
    endloop
  endfacet
  facet normal 0 1 0
    outer loop
      vertex 5.11959 -6 6.53449
      vertex 30 -6 2.5
      vertex 8.75226 -6 2.5
    endloop
  endfacet
  facet normal 0 -1 0
    outer loop
      vertex 2.5 -5 11.0717
      vertex 30 -5 30
      vertex 2.5 -5 30
    endloop
  endfacet
  facet normal 0 -1 0
    outer loop
      vertex 5.11959 -5 6.53449
      vertex 30 -5 30
      vertex 2.5 -5 11.0717
    endloop
  endfacet
  facet normal 0 -1 0
    outer loop
      vertex 30 -5 2.5
      vertex 5.11959 -5 6.53449
      vertex 8.75226 -5 2.5
    endloop
  endfacet
  facet normal 0 -1 0
    outer loop
      vertex 5.11959 -5 6.53449
      vertex 30 -5 2.5
      vertex 30 -5 30
    endloop
  endfacet
  facet normal -0 0 1
    outer loop
      vertex 8.75226 -5 2.5
      vertex 30 -6 2.5
      vertex 30 -5 2.5
    endloop
  endfacet
  facet normal 0 0 1
    outer loop
      vertex 30 -6 2.5
      vertex 8.75226 -5 2.5
      vertex 8.75226 -6 2.5
    endloop
  endfacet
  facet normal -0.959493 0 -0.281732
    outer loop
      vertex 21.3 -2.6 8.5
      vertex 20.7761 2.28353e-15 10.2841
      vertex 21.3 1.88738e-15 8.5
    endloop
  endfacet
  facet normal -0.959493 -0 -0.281732
    outer loop
      vertex 20.7761 2.28353e-15 10.2841
      vertex 21.3 -2.6 8.5
      vertex 20.7761 -2.6 10.2841
    endloop
  endfacet
  facet normal 1 -0 0
    outer loop
      vertex 14.8337 -2.6 9.42972
      vertex 14.8337 1.68094e-15 7.57028
      vertex 14.8337 2.09382e-15 9.42972
    endloop
  endfacet
  facet normal 1 0 0
    outer loop
      vertex 14.8337 1.68094e-15 7.57028
      vertex 14.8337 -2.6 9.42972
      vertex 14.8337 -2.6 7.57028
    endloop
  endfacet
  facet normal -0.142315 0 -0.989821
    outer loop
      vertex 17.5304 -2.6 11.7664
      vertex 19.3709 2.55391e-15 11.5018
      vertex 19.3709 -2.6 11.5018
    endloop
  endfacet
  facet normal -0.142315 0 -0.989821
    outer loop
      vertex 19.3709 2.55391e-15 11.5018
      vertex 17.5304 -2.6 11.7664
      vertex 17.5304 2.61267e-15 11.7664
    endloop
  endfacet
  facet normal -0.654861 0 -0.75575
    outer loop
      vertex 19.3709 -2.6 11.5018
      vertex 20.7761 2.28353e-15 10.2841
      vertex 20.7761 -2.6 10.2841
    endloop
  endfacet
  facet normal -0.654861 0 -0.75575
    outer loop
      vertex 20.7761 2.28353e-15 10.2841
      vertex 19.3709 -2.6 11.5018
      vertex 19.3709 2.55391e-15 11.5018
    endloop
  endfacet
  facet normal 0 1 0
    outer loop
      vertex 19.3709 -2.6 11.5018
      vertex 15.839 -2.6 10.994
      vertex 17.5304 -2.6 11.7664
    endloop
  endfacet
  facet normal 0 1 0
    outer loop
      vertex 20.7761 -2.6 10.2841
      vertex 15.839 -2.6 10.994
      vertex 19.3709 -2.6 11.5018
    endloop
  endfacet
  facet normal 0 1 0
    outer loop
      vertex 20.7761 -2.6 10.2841
      vertex 14.8337 -2.6 9.42972
      vertex 15.839 -2.6 10.994
    endloop
  endfacet
  facet normal 0 1 0
    outer loop
      vertex 21.3 -2.6 8.5
      vertex 14.8337 -2.6 9.42972
      vertex 20.7761 -2.6 10.2841
    endloop
  endfacet
  facet normal 0 1 0
    outer loop
      vertex 21.3 -2.6 8.5
      vertex 14.8337 -2.6 7.57028
      vertex 14.8337 -2.6 9.42972
    endloop
  endfacet
  facet normal 0 1 -0
    outer loop
      vertex 20.7761 -2.6 6.71589
      vertex 14.8337 -2.6 7.57028
      vertex 21.3 -2.6 8.5
    endloop
  endfacet
  facet normal 0 1 0
    outer loop
      vertex 20.7761 -2.6 6.71589
      vertex 15.839 -2.6 6.00603
      vertex 14.8337 -2.6 7.57028
    endloop
  endfacet
  facet normal 0 1 -0
    outer loop
      vertex 19.3709 -2.6 5.49821
      vertex 15.839 -2.6 6.00603
      vertex 20.7761 -2.6 6.71589
    endloop
  endfacet
  facet normal 0 1 0
    outer loop
      vertex 15.839 -2.6 6.00603
      vertex 19.3709 -2.6 5.49821
      vertex 17.5304 -2.6 5.23359
    endloop
  endfacet
  facet normal -0.654861 0 0.75575
    outer loop
      vertex 19.3709 1.22085e-15 5.49821
      vertex 20.7761 -2.6 6.71589
      vertex 20.7761 1.49123e-15 6.71589
    endloop
  endfacet
  facet normal -0.654861 0 0.75575
    outer loop
      vertex 20.7761 -2.6 6.71589
      vertex 19.3709 1.22085e-15 5.49821
      vertex 19.3709 -2.6 5.49821
    endloop
  endfacet
  facet normal -0.142315 0 0.989821
    outer loop
      vertex 17.5304 1.16209e-15 5.23359
      vertex 19.3709 -2.6 5.49821
      vertex 19.3709 1.22085e-15 5.49821
    endloop
  endfacet
  facet normal -0.142315 0 0.989821
    outer loop
      vertex 19.3709 -2.6 5.49821
      vertex 17.5304 1.16209e-15 5.23359
      vertex 17.5304 -2.6 5.23359
    endloop
  endfacet
  facet normal 0.841254 -0 0.540641
    outer loop
      vertex 14.8337 -2.6 7.57028
      vertex 15.839 1.33361e-15 6.00603
      vertex 14.8337 1.68094e-15 7.57028
    endloop
  endfacet
  facet normal 0.841254 0 0.540641
    outer loop
      vertex 15.839 1.33361e-15 6.00603
      vertex 14.8337 -2.6 7.57028
      vertex 15.839 -2.6 6.00603
    endloop
  endfacet
  facet normal 0.415415 0 -0.909632
    outer loop
      vertex 15.839 -2.6 10.994
      vertex 17.5304 2.61267e-15 11.7664
      vertex 17.5304 -2.6 11.7664
    endloop
  endfacet
  facet normal 0.415415 0 -0.909632
    outer loop
      vertex 17.5304 2.61267e-15 11.7664
      vertex 15.839 -2.6 10.994
      vertex 15.839 2.44115e-15 10.994
    endloop
  endfacet
  facet normal 0.841254 0 -0.540641
    outer loop
      vertex 15.839 -2.6 10.994
      vertex 14.8337 2.09382e-15 9.42972
      vertex 15.839 2.44115e-15 10.994
    endloop
  endfacet
  facet normal 0.841254 0 -0.540641
    outer loop
      vertex 14.8337 2.09382e-15 9.42972
      vertex 15.839 -2.6 10.994
      vertex 14.8337 -2.6 9.42972
    endloop
  endfacet
  facet normal -0.959493 0 0.281732
    outer loop
      vertex 20.7761 -2.6 6.71589
      vertex 21.3 1.88738e-15 8.5
      vertex 20.7761 1.49123e-15 6.71589
    endloop
  endfacet
  facet normal -0.959493 0 0.281732
    outer loop
      vertex 21.3 1.88738e-15 8.5
      vertex 20.7761 -2.6 6.71589
      vertex 21.3 -2.6 8.5
    endloop
  endfacet
  facet normal 0.415415 0 0.909632
    outer loop
      vertex 15.839 1.33361e-15 6.00603
      vertex 17.5304 -2.6 5.23359
      vertex 17.5304 1.16209e-15 5.23359
    endloop
  endfacet
  facet normal 0.415415 0 0.909632
    outer loop
      vertex 17.5304 -2.6 5.23359
      vertex 15.839 1.33361e-15 6.00603
      vertex 15.839 -2.6 6.00603
    endloop
  endfacet
  facet normal 1 -0 0
    outer loop
      vertex 15 -75 15
      vertex 15 -11 2.44249e-15
      vertex 15 -11 15
    endloop
  endfacet
  facet normal 1 0 0
    outer loop
      vertex 15 -11 2.44249e-15
      vertex 15 -75 15
      vertex 15 -75 1.66533e-14
    endloop
  endfacet
  facet normal -0 0 1
    outer loop
      vertex 0.232024 -11 15
      vertex 15 -75 15
      vertex 15 -11 15
    endloop
  endfacet
  facet normal 0 0 1
    outer loop
      vertex 15 -75 15
      vertex 0.232024 -11 15
      vertex 0.232024 -75 15
    endloop
  endfacet
  facet normal -0.743145 0 -0.669131
    outer loop
      vertex 11.0033 0 0
      vertex 8.75226 -6 2.5
      vertex 8.75226 -5 2.5
    endloop
  endfacet
  facet normal -0.743145 -1.48577e-16 -0.669131
    outer loop
      vertex 11.0033 -81 1.79856e-14
      vertex 8.75226 -6 2.5
      vertex 11.0033 0 0
    endloop
  endfacet
  facet normal -0.743145 -4.79103e-09 -0.669131
    outer loop
      vertex 5.11959 -81 6.53449
      vertex 8.75226 -6 2.5
      vertex 11.0033 -81 1.79856e-14
    endloop
  endfacet
  facet normal -0.743145 0 -0.669131
    outer loop
      vertex 8.75226 -6 2.5
      vertex 5.11959 -81 6.53449
      vertex 5.11959 -6 6.53449
    endloop
  endfacet
  facet normal -0.743145 7.18654e-08 -0.669131
    outer loop
      vertex 8.75226 -5 2.5
      vertex 5.11959 1.45095e-15 6.53449
      vertex 11.0033 0 0
    endloop
  endfacet
  facet normal -0.743145 -0 -0.669131
    outer loop
      vertex 5.11959 1.45095e-15 6.53449
      vertex 8.75226 -5 2.5
      vertex 5.11959 -5 6.53449
    endloop
  endfacet
  facet normal -0.866025 -3.12393e-08 -0.5
    outer loop
      vertex 5.11959 -6 6.53449
      vertex 0.232024 -11 15
      vertex 2.5 -6 11.0717
    endloop
  endfacet
  facet normal -0.866025 0 -0.5
    outer loop
      vertex 5.11959 -6 6.53449
      vertex 0.232024 -75 15
      vertex 0.232024 -11 15
    endloop
  endfacet
  facet normal -0.866025 0 -0.5
    outer loop
      vertex 5.11959 -81 6.53449
      vertex 0.232024 -75 15
      vertex 5.11959 -6 6.53449
    endloop
  endfacet
  facet normal -0.866025 -1.35005e-08 -0.5
    outer loop
      vertex 0 -81 15.4019
      vertex 0.232024 -75 15
      vertex 5.11959 -81 6.53449
    endloop
  endfacet
  facet normal -0.866026 0 -0.5
    outer loop
      vertex 0.232024 -75 15
      vertex 0 -81 15.4019
      vertex 0 -75 15.4019
    endloop
  endfacet
  facet normal -0.866025 0 -0.5
    outer loop
      vertex 2.5 -5 11.0717
      vertex 5.11959 1.45095e-15 6.53449
      vertex 5.11959 -5 6.53449
    endloop
  endfacet
  facet normal -0.866025 2.54263e-08 -0.5
    outer loop
      vertex 5.11959 1.45095e-15 6.53449
      vertex 2.5 -5 11.0717
      vertex 0 3.4199e-15 15.4019
    endloop
  endfacet
  facet normal -0.866025 0 -0.5
    outer loop
      vertex 2.5 -6 11.0717
      vertex 0 3.4199e-15 15.4019
      vertex 2.5 -5 11.0717
    endloop
  endfacet
  facet normal -0.866026 1.49131e-07 -0.5
    outer loop
      vertex 0 -11 15.4019
      vertex 2.5 -6 11.0717
      vertex 0.232024 -11 15
    endloop
  endfacet
  facet normal -0.866025 0 -0.5
    outer loop
      vertex 2.5 -6 11.0717
      vertex 0 -11 15.4019
      vertex 0 3.4199e-15 15.4019
    endloop
  endfacet
endsolid OpenSCAD_Model
