solid OpenSCAD_Model
  facet normal 1 -0 0
    outer loop
      vertex 275 12.8388 15
      vertex 275 79 0
      vertex 275 79 15
    endloop
  endfacet
  facet normal 1 0 0
    outer loop
      vertex 275 79 0
      vertex 275 12.8388 15
      vertex 275 12.8388 0
    endloop
  endfacet
  facet normal -0 0 1
    outer loop
      vertex 260 20 15
      vertex 275 12.8388 15
      vertex 275 79 15
    endloop
  endfacet
  facet normal 0 0 1
    outer loop
      vertex 275 12.8388 15
      vertex 267.776 11.7841 15
      vertex 268.3 10 15
    endloop
  endfacet
  facet normal 0 0 1
    outer loop
      vertex 275 12.8388 15
      vertex 266.371 13.0018 15
      vertex 267.776 11.7841 15
    endloop
  endfacet
  facet normal 0 0 1
    outer loop
      vertex 275 12.8388 15
      vertex 260 20 15
      vertex 266.371 13.0018 15
    endloop
  endfacet
  facet normal 0 0 1
    outer loop
      vertex 266.371 13.0018 15
      vertex 260 20 15
      vertex 264.53 13.2664 15
    endloop
  endfacet
  facet normal 0 0 1
    outer loop
      vertex 264.53 13.2664 15
      vertex 260 20 15
      vertex 262.839 12.494 15
    endloop
  endfacet
  facet normal 0 0 1
    outer loop
      vertex 260 5 15
      vertex 261.834 10.9297 15
      vertex 260 20 15
    endloop
  endfacet
  facet normal 0 0 1
    outer loop
      vertex 262.839 12.494 15
      vertex 260 20 15
      vertex 261.834 10.9297 15
    endloop
  endfacet
  facet normal -0 0 1
    outer loop
      vertex 205.111 79 15
      vertex 260 20 15
      vertex 275 79 15
    endloop
  endfacet
  facet normal -0 0 1
    outer loop
      vertex 195 65 15
      vertex 260 20 15
      vertex 205.111 79 15
    endloop
  endfacet
  facet normal -0 0 1
    outer loop
      vertex 149.867 79 15
      vertex 195 65 15
      vertex 166.562 79 15
    endloop
  endfacet
  facet normal 0 0 1
    outer loop
      vertex 195 65 15
      vertex 149.867 79 15
      vertex 260 20 15
    endloop
  endfacet
  facet normal 0 0 1
    outer loop
      vertex 267.776 8.21589 15
      vertex 275 12.8388 15
      vertex 268.3 10 15
    endloop
  endfacet
  facet normal -0 0 1
    outer loop
      vertex 267.776 8.21589 15
      vertex 267.588 0 15
      vertex 275 12.8388 15
    endloop
  endfacet
  facet normal -0 0 1
    outer loop
      vertex 266.371 6.99821 15
      vertex 267.588 0 15
      vertex 267.776 8.21589 15
    endloop
  endfacet
  facet normal -0 0 1
    outer loop
      vertex 264.53 6.73359 15
      vertex 267.588 0 15
      vertex 266.371 6.99821 15
    endloop
  endfacet
  facet normal 0 0 1
    outer loop
      vertex 260 5 15
      vertex 264.53 6.73359 15
      vertex 262.839 7.50603 15
    endloop
  endfacet
  facet normal 0 0 1
    outer loop
      vertex 260 5 15
      vertex 262.839 7.50603 15
      vertex 261.834 9.07028 15
    endloop
  endfacet
  facet normal 0 0 1
    outer loop
      vertex 261.834 10.9297 15
      vertex 260 5 15
      vertex 261.834 9.07028 15
    endloop
  endfacet
  facet normal 0 0 1
    outer loop
      vertex 264.53 6.73359 15
      vertex 260 5 15
      vertex 267.588 0 15
    endloop
  endfacet
  facet normal 0 0 1
    outer loop
      vertex 260 5 15
      vertex 138.3 0 15
      vertex 267.588 0 15
    endloop
  endfacet
  facet normal 0 -0 1
    outer loop
      vertex 138.3 0 15
      vertex 260 5 15
      vertex 137.3 5 15
    endloop
  endfacet
  facet normal 0 0 -1
    outer loop
      vertex 267.776 11.7841 0
      vertex 275 12.8388 0
      vertex 268.3 10 0
    endloop
  endfacet
  facet normal 0 0 -1
    outer loop
      vertex 275 12.8388 0
      vertex 267.776 8.21589 0
      vertex 268.3 10 0
    endloop
  endfacet
  facet normal 0 0 -1
    outer loop
      vertex 267.588 0 0
      vertex 267.776 8.21589 0
      vertex 275 12.8388 0
    endloop
  endfacet
  facet normal 0 0 -1
    outer loop
      vertex 267.588 0 0
      vertex 266.371 6.99821 0
      vertex 267.776 8.21589 0
    endloop
  endfacet
  facet normal 0 0 -1
    outer loop
      vertex 267.588 0 0
      vertex 264.53 6.73359 0
      vertex 266.371 6.99821 0
    endloop
  endfacet
  facet normal 0 0 -1
    outer loop
      vertex 267.588 0 0
      vertex 262.839 7.50603 0
      vertex 264.53 6.73359 0
    endloop
  endfacet
  facet normal 0 0 -1
    outer loop
      vertex 138.3 0 0
      vertex 262.839 7.50603 0
      vertex 267.588 0 0
    endloop
  endfacet
  facet normal -0 0 -1
    outer loop
      vertex 261.834 9.07028 0
      vertex 138.3 0 0
      vertex 261.834 10.9297 0
    endloop
  endfacet
  facet normal -0 0 -1
    outer loop
      vertex 262.839 7.50603 0
      vertex 138.3 0 0
      vertex 261.834 9.07028 0
    endloop
  endfacet
  facet normal 0 0 -1
    outer loop
      vertex 266.371 13.0018 0
      vertex 275 12.8388 0
      vertex 267.776 11.7841 0
    endloop
  endfacet
  facet normal 0 0 -1
    outer loop
      vertex 275 12.8388 0
      vertex 266.371 13.0018 0
      vertex 275 79 0
    endloop
  endfacet
  facet normal 0 0 -1
    outer loop
      vertex 264.53 13.2664 0
      vertex 275 79 0
      vertex 266.371 13.0018 0
    endloop
  endfacet
  facet normal 0 0 -1
    outer loop
      vertex 262.839 12.494 0
      vertex 275 79 0
      vertex 264.53 13.2664 0
    endloop
  endfacet
  facet normal 0 0 -1
    outer loop
      vertex 136.5 79 0
      vertex 262.839 12.494 0
      vertex 261.834 10.9297 0
    endloop
  endfacet
  facet normal 0 0 -1
    outer loop
      vertex 136.5 9 0
      vertex 261.834 10.9297 0
      vertex 138.3 0 0
    endloop
  endfacet
  facet normal 0 0 -1
    outer loop
      vertex 136.5 79 0
      vertex 261.834 10.9297 0
      vertex 136.5 9 0
    endloop
  endfacet
  facet normal 0 0 -1
    outer loop
      vertex 262.839 12.494 0
      vertex 136.5 79 0
      vertex 275 79 0
    endloop
  endfacet
  facet normal 0 0 -1
    outer loop
      vertex 111.5 39 0
      vertex 136.5 79 0
      vertex 136.5 9 0
    endloop
  endfacet
  facet normal 0 0 -1
    outer loop
      vertex 136.5 79 0
      vertex 111.5 39 0
      vertex 111.5 59 0
    endloop
  endfacet
  facet normal 0 -1 0
    outer loop
      vertex 138.3 0 0
      vertex 267.588 0 15
      vertex 138.3 0 15
    endloop
  endfacet
  facet normal 0 -1 -0
    outer loop
      vertex 267.588 0 15
      vertex 138.3 0 0
      vertex 267.588 0 0
    endloop
  endfacet
  facet normal 0.841255 0.540638 0
    outer loop
      vertex 262.839 7.50603 15
      vertex 261.834 9.07028 12.8
      vertex 261.834 9.07028 15
    endloop
  endfacet
  facet normal 0.841255 0.540638 0
    outer loop
      vertex 261.834 9.07028 12.8
      vertex 262.839 7.50603 15
      vertex 262.839 7.50603 12.8
    endloop
  endfacet
  facet normal -0.654867 -0.755744 0
    outer loop
      vertex 266.371 13.0018 12.8
      vertex 267.776 11.7841 15
      vertex 266.371 13.0018 15
    endloop
  endfacet
  facet normal -0.654867 -0.755744 -0
    outer loop
      vertex 267.776 11.7841 15
      vertex 266.371 13.0018 12.8
      vertex 267.776 11.7841 12.8
    endloop
  endfacet
  facet normal -0.959493 -0.281733 0
    outer loop
      vertex 268.3 10 12.8
      vertex 267.776 11.7841 15
      vertex 267.776 11.7841 12.8
    endloop
  endfacet
  facet normal -0.959493 -0.281733 0
    outer loop
      vertex 267.776 11.7841 15
      vertex 268.3 10 12.8
      vertex 268.3 10 15
    endloop
  endfacet
  facet normal -0.142314 -0.989822 0
    outer loop
      vertex 264.53 13.2664 12.8
      vertex 266.371 13.0018 15
      vertex 264.53 13.2664 15
    endloop
  endfacet
  facet normal -0.142314 -0.989822 -0
    outer loop
      vertex 266.371 13.0018 15
      vertex 264.53 13.2664 12.8
      vertex 266.371 13.0018 12.8
    endloop
  endfacet
  facet normal -0.654867 0.755744 0
    outer loop
      vertex 267.776 8.21589 12.8
      vertex 266.371 6.99821 15
      vertex 267.776 8.21589 15
    endloop
  endfacet
  facet normal -0.654867 0.755744 0
    outer loop
      vertex 266.371 6.99821 15
      vertex 267.776 8.21589 12.8
      vertex 266.371 6.99821 12.8
    endloop
  endfacet
  facet normal -0.959493 0.281733 0
    outer loop
      vertex 267.776 8.21589 12.8
      vertex 268.3 10 15
      vertex 268.3 10 12.8
    endloop
  endfacet
  facet normal -0.959493 0.281733 0
    outer loop
      vertex 268.3 10 15
      vertex 267.776 8.21589 12.8
      vertex 267.776 8.21589 15
    endloop
  endfacet
  facet normal 0.415414 -0.909632 0
    outer loop
      vertex 262.839 12.494 12.8
      vertex 264.53 13.2664 15
      vertex 262.839 12.494 15
    endloop
  endfacet
  facet normal 0.415414 -0.909632 0
    outer loop
      vertex 264.53 13.2664 15
      vertex 262.839 12.494 12.8
      vertex 264.53 13.2664 12.8
    endloop
  endfacet
  facet normal 1 -0 0
    outer loop
      vertex 261.834 9.07028 15
      vertex 261.834 10.9297 12.8
      vertex 261.834 10.9297 15
    endloop
  endfacet
  facet normal 1 0 0
    outer loop
      vertex 261.834 10.9297 12.8
      vertex 261.834 9.07028 15
      vertex 261.834 9.07028 12.8
    endloop
  endfacet
  facet normal 0.415414 0.909632 -0
    outer loop
      vertex 264.53 6.73359 12.8
      vertex 262.839 7.50603 15
      vertex 264.53 6.73359 15
    endloop
  endfacet
  facet normal 0.415414 0.909632 0
    outer loop
      vertex 262.839 7.50603 15
      vertex 264.53 6.73359 12.8
      vertex 262.839 7.50603 12.8
    endloop
  endfacet
  facet normal -0.142314 0.989822 0
    outer loop
      vertex 266.371 6.99821 12.8
      vertex 264.53 6.73359 15
      vertex 266.371 6.99821 15
    endloop
  endfacet
  facet normal -0.142314 0.989822 0
    outer loop
      vertex 264.53 6.73359 15
      vertex 266.371 6.99821 12.8
      vertex 264.53 6.73359 12.8
    endloop
  endfacet
  facet normal 0 0 1
    outer loop
      vertex 267.776 11.7841 12.8
      vertex 267.776 8.21589 12.8
      vertex 268.3 10 12.8
    endloop
  endfacet
  facet normal 0 0 1
    outer loop
      vertex 266.371 13.0018 12.8
      vertex 267.776 8.21589 12.8
      vertex 267.776 11.7841 12.8
    endloop
  endfacet
  facet normal 0 0 1
    outer loop
      vertex 266.371 13.0018 12.8
      vertex 266.371 6.99821 12.8
      vertex 267.776 8.21589 12.8
    endloop
  endfacet
  facet normal 0 0 1
    outer loop
      vertex 264.53 13.2664 12.8
      vertex 266.371 6.99821 12.8
      vertex 266.371 13.0018 12.8
    endloop
  endfacet
  facet normal 0 0 1
    outer loop
      vertex 264.53 13.2664 12.8
      vertex 264.53 6.73359 12.8
      vertex 266.371 6.99821 12.8
    endloop
  endfacet
  facet normal -0 0 1
    outer loop
      vertex 262.839 12.494 12.8
      vertex 264.53 6.73359 12.8
      vertex 264.53 13.2664 12.8
    endloop
  endfacet
  facet normal 0 0 1
    outer loop
      vertex 262.839 12.494 12.8
      vertex 262.839 7.50603 12.8
      vertex 264.53 6.73359 12.8
    endloop
  endfacet
  facet normal -0 0 1
    outer loop
      vertex 261.834 10.9297 12.8
      vertex 262.839 7.50603 12.8
      vertex 262.839 12.494 12.8
    endloop
  endfacet
  facet normal 0 0 1
    outer loop
      vertex 262.839 7.50603 12.8
      vertex 261.834 10.9297 12.8
      vertex 261.834 9.07028 12.8
    endloop
  endfacet
  facet normal 0.841255 -0.540638 0
    outer loop
      vertex 261.834 10.9297 15
      vertex 262.839 12.494 12.8
      vertex 262.839 12.494 15
    endloop
  endfacet
  facet normal 0.841255 -0.540638 0
    outer loop
      vertex 262.839 12.494 12.8
      vertex 261.834 10.9297 15
      vertex 261.834 10.9297 12.8
    endloop
  endfacet
  facet normal 0.841255 0.540638 0
    outer loop
      vertex 262.839 7.50603 2.2
      vertex 261.834 9.07028 0
      vertex 261.834 9.07028 2.2
    endloop
  endfacet
  facet normal 0.841255 0.540638 0
    outer loop
      vertex 261.834 9.07028 0
      vertex 262.839 7.50603 2.2
      vertex 262.839 7.50603 0
    endloop
  endfacet
  facet normal -0.654867 -0.755744 0
    outer loop
      vertex 266.371 13.0018 0
      vertex 267.776 11.7841 2.2
      vertex 266.371 13.0018 2.2
    endloop
  endfacet
  facet normal -0.654867 -0.755744 -0
    outer loop
      vertex 267.776 11.7841 2.2
      vertex 266.371 13.0018 0
      vertex 267.776 11.7841 0
    endloop
  endfacet
  facet normal -0.959493 -0.281733 0
    outer loop
      vertex 268.3 10 0
      vertex 267.776 11.7841 2.2
      vertex 267.776 11.7841 0
    endloop
  endfacet
  facet normal -0.959493 -0.281733 0
    outer loop
      vertex 267.776 11.7841 2.2
      vertex 268.3 10 0
      vertex 268.3 10 2.2
    endloop
  endfacet
  facet normal -0.142314 -0.989822 0
    outer loop
      vertex 264.53 13.2664 0
      vertex 266.371 13.0018 2.2
      vertex 264.53 13.2664 2.2
    endloop
  endfacet
  facet normal -0.142314 -0.989822 -0
    outer loop
      vertex 266.371 13.0018 2.2
      vertex 264.53 13.2664 0
      vertex 266.371 13.0018 0
    endloop
  endfacet
  facet normal -0.654867 0.755744 0
    outer loop
      vertex 267.776 8.21589 0
      vertex 266.371 6.99821 2.2
      vertex 267.776 8.21589 2.2
    endloop
  endfacet
  facet normal -0.654867 0.755744 0
    outer loop
      vertex 266.371 6.99821 2.2
      vertex 267.776 8.21589 0
      vertex 266.371 6.99821 0
    endloop
  endfacet
  facet normal -0.959493 0.281733 0
    outer loop
      vertex 267.776 8.21589 0
      vertex 268.3 10 2.2
      vertex 268.3 10 0
    endloop
  endfacet
  facet normal -0.959493 0.281733 0
    outer loop
      vertex 268.3 10 2.2
      vertex 267.776 8.21589 0
      vertex 267.776 8.21589 2.2
    endloop
  endfacet
  facet normal 0.415414 -0.909632 0
    outer loop
      vertex 262.839 12.494 0
      vertex 264.53 13.2664 2.2
      vertex 262.839 12.494 2.2
    endloop
  endfacet
  facet normal 0.415414 -0.909632 0
    outer loop
      vertex 264.53 13.2664 2.2
      vertex 262.839 12.494 0
      vertex 264.53 13.2664 0
    endloop
  endfacet
  facet normal 1 -0 0
    outer loop
      vertex 261.834 9.07028 2.2
      vertex 261.834 10.9297 0
      vertex 261.834 10.9297 2.2
    endloop
  endfacet
  facet normal 1 0 0
    outer loop
      vertex 261.834 10.9297 0
      vertex 261.834 9.07028 2.2
      vertex 261.834 9.07028 0
    endloop
  endfacet
  facet normal 0 0 -1
    outer loop
      vertex 267.776 8.21589 2.2
      vertex 267.776 11.7841 2.2
      vertex 268.3 10 2.2
    endloop
  endfacet
  facet normal 0 0 -1
    outer loop
      vertex 266.371 6.99821 2.2
      vertex 267.776 11.7841 2.2
      vertex 267.776 8.21589 2.2
    endloop
  endfacet
  facet normal 0 0 -1
    outer loop
      vertex 266.371 6.99821 2.2
      vertex 266.371 13.0018 2.2
      vertex 267.776 11.7841 2.2
    endloop
  endfacet
  facet normal 0 0 -1
    outer loop
      vertex 264.53 6.73359 2.2
      vertex 266.371 13.0018 2.2
      vertex 266.371 6.99821 2.2
    endloop
  endfacet
  facet normal 0 0 -1
    outer loop
      vertex 264.53 6.73359 2.2
      vertex 264.53 13.2664 2.2
      vertex 266.371 13.0018 2.2
    endloop
  endfacet
  facet normal 0 0 -1
    outer loop
      vertex 262.839 7.50603 2.2
      vertex 264.53 13.2664 2.2
      vertex 264.53 6.73359 2.2
    endloop
  endfacet
  facet normal 0 0 -1
    outer loop
      vertex 262.839 7.50603 2.2
      vertex 262.839 12.494 2.2
      vertex 264.53 13.2664 2.2
    endloop
  endfacet
  facet normal 0 0 -1
    outer loop
      vertex 261.834 9.07028 2.2
      vertex 262.839 12.494 2.2
      vertex 262.839 7.50603 2.2
    endloop
  endfacet
  facet normal 0 0 -1
    outer loop
      vertex 262.839 12.494 2.2
      vertex 261.834 9.07028 2.2
      vertex 261.834 10.9297 2.2
    endloop
  endfacet
  facet normal 0.415414 0.909632 -0
    outer loop
      vertex 264.53 6.73359 0
      vertex 262.839 7.50603 2.2
      vertex 264.53 6.73359 2.2
    endloop
  endfacet
  facet normal 0.415414 0.909632 0
    outer loop
      vertex 262.839 7.50603 2.2
      vertex 264.53 6.73359 0
      vertex 262.839 7.50603 0
    endloop
  endfacet
  facet normal -0.142314 0.989822 0
    outer loop
      vertex 266.371 6.99821 0
      vertex 264.53 6.73359 2.2
      vertex 266.371 6.99821 2.2
    endloop
  endfacet
  facet normal -0.142314 0.989822 0
    outer loop
      vertex 264.53 6.73359 2.2
      vertex 266.371 6.99821 0
      vertex 264.53 6.73359 0
    endloop
  endfacet
  facet normal 0.841255 -0.540638 0
    outer loop
      vertex 261.834 10.9297 2.2
      vertex 262.839 12.494 0
      vertex 262.839 12.494 2.2
    endloop
  endfacet
  facet normal 0.841255 -0.540638 0
    outer loop
      vertex 262.839 12.494 0
      vertex 261.834 10.9297 2.2
      vertex 261.834 10.9297 0
    endloop
  endfacet
  facet normal 0 0 1
    outer loop
      vertex 136.5 9 5
      vertex 260 20 5
      vertex 149.867 79 5
    endloop
  endfacet
  facet normal 0 -0 1
    outer loop
      vertex 137.3 5 5
      vertex 260 20 5
      vertex 136.5 9 5
    endloop
  endfacet
  facet normal 0 0 1
    outer loop
      vertex 111.5 39 5
      vertex 149.867 79 5
      vertex 136.5 79 5
    endloop
  endfacet
  facet normal 0 0 1
    outer loop
      vertex 260 20 5
      vertex 137.3 5 5
      vertex 260 5 5
    endloop
  endfacet
  facet normal 0 0 1
    outer loop
      vertex 111.5 39 5
      vertex 136.5 79 5
      vertex 111.5 59 5
    endloop
  endfacet
  facet normal 0 0 1
    outer loop
      vertex 149.867 79 5
      vertex 111.5 39 5
      vertex 136.5 9 5
    endloop
  endfacet
  facet normal -1 0 0
    outer loop
      vertex 260 5 5
      vertex 260 20 15
      vertex 260 20 5
    endloop
  endfacet
  facet normal -1 -0 0
    outer loop
      vertex 260 20 15
      vertex 260 5 5
      vertex 260 5 15
    endloop
  endfacet
  facet normal 0 1 -0
    outer loop
      vertex 260 5 5
      vertex 137.3 5 15
      vertex 260 5 15
    endloop
  endfacet
  facet normal 0 1 0
    outer loop
      vertex 137.3 5 15
      vertex 260 5 5
      vertex 137.3 5 5
    endloop
  endfacet
  facet normal -0.472221 -0.88148 0
    outer loop
      vertex 149.867 79 5
      vertex 260 20 15
      vertex 149.867 79 15
    endloop
  endfacet
  facet normal -0.472221 -0.88148 -0
    outer loop
      vertex 260 20 15
      vertex 149.867 79 5
      vertex 260 20 5
    endloop
  endfacet
  facet normal 0 0 1
    outer loop
      vertex 205.111 79 12
      vertex 166.562 79 12
      vertex 195 65 12
    endloop
  endfacet
  facet normal 0.441684 0.897171 -0
    outer loop
      vertex 195 65 12
      vertex 166.562 79 15
      vertex 195 65 15
    endloop
  endfacet
  facet normal 0.441684 0.897171 0
    outer loop
      vertex 166.562 79 15
      vertex 195 65 12
      vertex 166.562 79 12
    endloop
  endfacet
  facet normal -0.810679 0.585491 0
    outer loop
      vertex 195 65 12
      vertex 205.111 79 15
      vertex 205.111 79 12
    endloop
  endfacet
  facet normal -0.810679 0.585491 0
    outer loop
      vertex 205.111 79 15
      vertex 195 65 12
      vertex 195 65 15
    endloop
  endfacet
  facet normal 0.866025 -0.500001 0
    outer loop
      vertex 267.588 0 15
      vertex 275 12.8388 0
      vertex 275 12.8388 15
    endloop
  endfacet
  facet normal 0.866025 -0.500001 0
    outer loop
      vertex 275 12.8388 0
      vertex 267.588 0 15
      vertex 267.588 0 0
    endloop
  endfacet
  facet normal -0.768221 -0.640184 0
    outer loop
      vertex 136.5 9 0
      vertex 111.5 39 5
      vertex 111.5 39 0
    endloop
  endfacet
  facet normal -0.768221 -0.640184 0
    outer loop
      vertex 111.5 39 5
      vertex 136.5 9 0
      vertex 136.5 9 5
    endloop
  endfacet
  facet normal -1 0 0
    outer loop
      vertex 111.5 39 0
      vertex 111.5 59 5
      vertex 111.5 59 0
    endloop
  endfacet
  facet normal -1 -0 0
    outer loop
      vertex 111.5 59 5
      vertex 111.5 39 0
      vertex 111.5 39 5
    endloop
  endfacet
  facet normal -0.624695 0.780869 0
    outer loop
      vertex 136.5 79 0
      vertex 111.5 59 5
      vertex 136.5 79 5
    endloop
  endfacet
  facet normal -0.624695 0.780869 0
    outer loop
      vertex 111.5 59 5
      vertex 136.5 79 0
      vertex 111.5 59 0
    endloop
  endfacet
  facet normal -0.980581 -0.196117 0
    outer loop
      vertex 136.5 9 0
      vertex 137.3 5 5
      vertex 136.5 9 5
    endloop
  endfacet
  facet normal -0.980581 -0.196116 3.32499e-07
    outer loop
      vertex 138.3 0 0
      vertex 137.3 5 5
      vertex 136.5 9 0
    endloop
  endfacet
  facet normal -0.980581 -0.196116 -0
    outer loop
      vertex 138.3 0 15
      vertex 137.3 5 5
      vertex 138.3 0 0
    endloop
  endfacet
  facet normal -0.980581 -0.196116 0
    outer loop
      vertex 137.3 5 5
      vertex 138.3 0 15
      vertex 137.3 5 15
    endloop
  endfacet
  facet normal 0 1 0
    outer loop
      vertex 275 79 15
      vertex 205.111 79 12
      vertex 205.111 79 15
    endloop
  endfacet
  facet normal 0 1 0
    outer loop
      vertex 205.111 79 12
      vertex 149.867 79 5
      vertex 166.562 79 12
    endloop
  endfacet
  facet normal 0 1 -0
    outer loop
      vertex 275 79 0
      vertex 205.111 79 12
      vertex 275 79 15
    endloop
  endfacet
  facet normal 0 1 0
    outer loop
      vertex 136.5 79 0
      vertex 205.111 79 12
      vertex 275 79 0
    endloop
  endfacet
  facet normal 0 1 0
    outer loop
      vertex 205.111 79 12
      vertex 136.5 79 0
      vertex 149.867 79 5
    endloop
  endfacet
  facet normal 0 1 0
    outer loop
      vertex 149.867 79 5
      vertex 136.5 79 0
      vertex 136.5 79 5
    endloop
  endfacet
  facet normal 0 1 -0
    outer loop
      vertex 166.562 79 12
      vertex 149.867 79 15
      vertex 166.562 79 15
    endloop
  endfacet
  facet normal 0 1 0
    outer loop
      vertex 149.867 79 15
      vertex 166.562 79 12
      vertex 149.867 79 5
    endloop
  endfacet
endsolid OpenSCAD_Model
