solid OpenSCAD_Model
  facet normal 0 0 1
    outer loop
      vertex 6.26125 79 15
      vertex 0 79 15
      vertex 5 67 15
    endloop
  endfacet
  facet normal 0 0 1
    outer loop
      vertex 60.2628 5.39416 15
      vertex 47.8409 8.0345 15
      vertex 60 5 15
    endloop
  endfacet
  facet normal -0 0 1
    outer loop
      vertex 60 5 15
      vertex 138.3 0 15
      vertex 137.3 5 15
    endloop
  endfacet
  facet normal 0 0 1
    outer loop
      vertex 11.3709 13.0018 15
      vertex 25.5139 20.925 15
      vertex 16.8409 30.5573 15
    endloop
  endfacet
  facet normal 0 0 1
    outer loop
      vertex 13.3 10 15
      vertex 36 13.3064 15
      vertex 25.5139 20.925 15
    endloop
  endfacet
  facet normal 0 0 1
    outer loop
      vertex 12.7761 8.21589 15
      vertex 36 13.3064 15
      vertex 13.3 10 15
    endloop
  endfacet
  facet normal 0 0 1
    outer loop
      vertex 7.41246 0 15
      vertex 36 13.3064 15
      vertex 12.7761 8.21589 15
    endloop
  endfacet
  facet normal 0 0 1
    outer loop
      vertex 36 13.3064 15
      vertex 7.41246 0 15
      vertex 47.8409 8.0345 15
    endloop
  endfacet
  facet normal 0 0 1
    outer loop
      vertex 7.41246 0 15
      vertex 12.7761 8.21589 15
      vertex 11.3709 6.99821 15
    endloop
  endfacet
  facet normal 0 0 1
    outer loop
      vertex 47.8409 8.0345 15
      vertex 7.41246 0 15
      vertex 60 5 15
    endloop
  endfacet
  facet normal 0 0 1
    outer loop
      vertex 7.41246 0 15
      vertex 11.3709 6.99821 15
      vertex 9.53036 6.73359 15
    endloop
  endfacet
  facet normal 0 0 1
    outer loop
      vertex 60 5 15
      vertex 7.41246 0 15
      vertex 138.3 0 15
    endloop
  endfacet
  facet normal 0 0 1
    outer loop
      vertex 7.83896 7.50603 15
      vertex 7.41246 0 15
      vertex 9.53036 6.73359 15
    endloop
  endfacet
  facet normal 0 0 1
    outer loop
      vertex 6.83367 9.07028 15
      vertex 7.41246 0 15
      vertex 7.83896 7.50603 15
    endloop
  endfacet
  facet normal 0 0 1
    outer loop
      vertex 7.83896 12.494 15
      vertex 0 12.8388 15
      vertex 6.83367 10.9297 15
    endloop
  endfacet
  facet normal 0 0 1
    outer loop
      vertex 0 12.8388 15
      vertex 5 67 15
      vertex 0 79 15
    endloop
  endfacet
  facet normal 0 0 1
    outer loop
      vertex 6.83367 10.9297 15
      vertex 0 12.8388 15
      vertex 6.83367 9.07028 15
    endloop
  endfacet
  facet normal 0 0 1
    outer loop
      vertex 6.83367 9.07028 15
      vertex 0 12.8388 15
      vertex 7.41246 0 15
    endloop
  endfacet
  facet normal 0 0 1
    outer loop
      vertex 25.5139 20.925 15
      vertex 12.7761 11.7841 15
      vertex 13.3 10 15
    endloop
  endfacet
  facet normal 0 0 1
    outer loop
      vertex 25.5139 20.925 15
      vertex 11.3709 13.0018 15
      vertex 12.7761 11.7841 15
    endloop
  endfacet
  facet normal 0 0 1
    outer loop
      vertex 0 12.8388 15
      vertex 16.8409 30.5573 15
      vertex 10.3602 41.7823 15
    endloop
  endfacet
  facet normal 0 0 1
    outer loop
      vertex 16.8409 30.5573 15
      vertex 9.53036 13.2664 15
      vertex 11.3709 13.0018 15
    endloop
  endfacet
  facet normal 0 0 1
    outer loop
      vertex 0 12.8388 15
      vertex 9.53036 13.2664 15
      vertex 16.8409 30.5573 15
    endloop
  endfacet
  facet normal 0 0 1
    outer loop
      vertex 9.53036 13.2664 15
      vertex 0 12.8388 15
      vertex 7.83896 12.494 15
    endloop
  endfacet
  facet normal 0 0 1
    outer loop
      vertex 0 12.8388 15
      vertex 6.35485 54.1095 15
      vertex 5 67 15
    endloop
  endfacet
  facet normal 0 0 1
    outer loop
      vertex 0 12.8388 15
      vertex 10.3602 41.7823 15
      vertex 6.35485 54.1095 15
    endloop
  endfacet
  facet normal 0 0 -1
    outer loop
      vertex 138.3 0 0
      vertex 111.5 39 0
      vertex 136.5 9 0
    endloop
  endfacet
  facet normal 0 0 -1
    outer loop
      vertex 12.7761 11.7841 0
      vertex 111.5 39 0
      vertex 13.3 10 0
    endloop
  endfacet
  facet normal 0 0 -1
    outer loop
      vertex 12.7761 8.21589 0
      vertex 111.5 39 0
      vertex 138.3 0 0
    endloop
  endfacet
  facet normal 0 0 -1
    outer loop
      vertex 111.5 39 0
      vertex 12.7761 8.21589 0
      vertex 13.3 10 0
    endloop
  endfacet
  facet normal 0 0 -1
    outer loop
      vertex 7.41246 0 0
      vertex 12.7761 8.21589 0
      vertex 138.3 0 0
    endloop
  endfacet
  facet normal 0 0 -1
    outer loop
      vertex 12.7761 8.21589 0
      vertex 7.41246 0 0
      vertex 11.3709 6.99821 0
    endloop
  endfacet
  facet normal 0 0 -1
    outer loop
      vertex 11.3709 6.99821 0
      vertex 7.41246 0 0
      vertex 9.53036 6.73359 0
    endloop
  endfacet
  facet normal 0 0 -1
    outer loop
      vertex 7.41246 0 0
      vertex 7.83896 7.50603 0
      vertex 9.53036 6.73359 0
    endloop
  endfacet
  facet normal 0 0 -1
    outer loop
      vertex 7.41246 0 0
      vertex 6.83367 9.07028 0
      vertex 7.83896 7.50603 0
    endloop
  endfacet
  facet normal 0 0 -1
    outer loop
      vertex 6.83367 9.07028 0
      vertex 0 12.8388 0
      vertex 6.83367 10.9297 0
    endloop
  endfacet
  facet normal 0 0 -1
    outer loop
      vertex 0 12.8388 0
      vertex 6.83367 9.07028 0
      vertex 7.41246 0 0
    endloop
  endfacet
  facet normal -0 0 -1
    outer loop
      vertex 111.5 39 0
      vertex 12.7761 11.7841 0
      vertex 111.5 59 0
    endloop
  endfacet
  facet normal 0 0 -1
    outer loop
      vertex 0 79 0
      vertex 111.5 59 0
      vertex 12.7761 11.7841 0
    endloop
  endfacet
  facet normal 0 0 -1
    outer loop
      vertex 0 79 0
      vertex 12.7761 11.7841 0
      vertex 11.3709 13.0018 0
    endloop
  endfacet
  facet normal 0 0 -1
    outer loop
      vertex 0 79 0
      vertex 11.3709 13.0018 0
      vertex 9.53036 13.2664 0
    endloop
  endfacet
  facet normal 0 0 -1
    outer loop
      vertex 0 12.8388 0
      vertex 9.53036 13.2664 0
      vertex 7.83896 12.494 0
    endloop
  endfacet
  facet normal 0 0 -1
    outer loop
      vertex 0 12.8388 0
      vertex 7.83896 12.494 0
      vertex 6.83367 10.9297 0
    endloop
  endfacet
  facet normal -0 0 -1
    outer loop
      vertex 9.53036 13.2664 0
      vertex 0 12.8388 0
      vertex 0 79 0
    endloop
  endfacet
  facet normal 0 0 -1
    outer loop
      vertex 111.5 59 0
      vertex 0 79 0
      vertex 136.5 79 0
    endloop
  endfacet
  facet normal -1 0 0
    outer loop
      vertex 0 12.8388 0
      vertex 0 79 15
      vertex 0 79 0
    endloop
  endfacet
  facet normal -1 -0 0
    outer loop
      vertex 0 79 15
      vertex 0 12.8388 0
      vertex 0 12.8388 15
    endloop
  endfacet
  facet normal 0 -1 0
    outer loop
      vertex 7.41246 0 0
      vertex 138.3 0 15
      vertex 7.41246 0 15
    endloop
  endfacet
  facet normal 0 -1 -0
    outer loop
      vertex 138.3 0 15
      vertex 7.41246 0 0
      vertex 138.3 0 0
    endloop
  endfacet
  facet normal 0.841254 0.540641 0
    outer loop
      vertex 7.83896 7.50603 15
      vertex 6.83367 9.07028 12.8
      vertex 6.83367 9.07028 15
    endloop
  endfacet
  facet normal 0.841254 0.540641 0
    outer loop
      vertex 6.83367 9.07028 12.8
      vertex 7.83896 7.50603 15
      vertex 7.83896 7.50603 12.8
    endloop
  endfacet
  facet normal -0.654861 -0.75575 0
    outer loop
      vertex 11.3709 13.0018 12.8
      vertex 12.7761 11.7841 15
      vertex 11.3709 13.0018 15
    endloop
  endfacet
  facet normal -0.654861 -0.75575 -0
    outer loop
      vertex 12.7761 11.7841 15
      vertex 11.3709 13.0018 12.8
      vertex 12.7761 11.7841 12.8
    endloop
  endfacet
  facet normal -0.959493 -0.281732 0
    outer loop
      vertex 13.3 10 12.8
      vertex 12.7761 11.7841 15
      vertex 12.7761 11.7841 12.8
    endloop
  endfacet
  facet normal -0.959493 -0.281732 0
    outer loop
      vertex 12.7761 11.7841 15
      vertex 13.3 10 12.8
      vertex 13.3 10 15
    endloop
  endfacet
  facet normal -0.142315 -0.989821 0
    outer loop
      vertex 9.53036 13.2664 12.8
      vertex 11.3709 13.0018 15
      vertex 9.53036 13.2664 15
    endloop
  endfacet
  facet normal -0.142315 -0.989821 -0
    outer loop
      vertex 11.3709 13.0018 15
      vertex 9.53036 13.2664 12.8
      vertex 11.3709 13.0018 12.8
    endloop
  endfacet
  facet normal -0.654861 0.75575 0
    outer loop
      vertex 12.7761 8.21589 12.8
      vertex 11.3709 6.99821 15
      vertex 12.7761 8.21589 15
    endloop
  endfacet
  facet normal -0.654861 0.75575 0
    outer loop
      vertex 11.3709 6.99821 15
      vertex 12.7761 8.21589 12.8
      vertex 11.3709 6.99821 12.8
    endloop
  endfacet
  facet normal -0.959493 0.281732 0
    outer loop
      vertex 12.7761 8.21589 12.8
      vertex 13.3 10 15
      vertex 13.3 10 12.8
    endloop
  endfacet
  facet normal -0.959493 0.281732 0
    outer loop
      vertex 13.3 10 15
      vertex 12.7761 8.21589 12.8
      vertex 12.7761 8.21589 15
    endloop
  endfacet
  facet normal 0.415415 -0.909632 0
    outer loop
      vertex 7.83896 12.494 12.8
      vertex 9.53036 13.2664 15
      vertex 7.83896 12.494 15
    endloop
  endfacet
  facet normal 0.415415 -0.909632 0
    outer loop
      vertex 9.53036 13.2664 15
      vertex 7.83896 12.494 12.8
      vertex 9.53036 13.2664 12.8
    endloop
  endfacet
  facet normal 1 -0 0
    outer loop
      vertex 6.83367 9.07028 15
      vertex 6.83367 10.9297 12.8
      vertex 6.83367 10.9297 15
    endloop
  endfacet
  facet normal 1 0 0
    outer loop
      vertex 6.83367 10.9297 12.8
      vertex 6.83367 9.07028 15
      vertex 6.83367 9.07028 12.8
    endloop
  endfacet
  facet normal 0.415415 0.909632 -0
    outer loop
      vertex 9.53036 6.73359 12.8
      vertex 7.83896 7.50603 15
      vertex 9.53036 6.73359 15
    endloop
  endfacet
  facet normal 0.415415 0.909632 0
    outer loop
      vertex 7.83896 7.50603 15
      vertex 9.53036 6.73359 12.8
      vertex 7.83896 7.50603 12.8
    endloop
  endfacet
  facet normal -0.142315 0.989821 0
    outer loop
      vertex 11.3709 6.99821 12.8
      vertex 9.53036 6.73359 15
      vertex 11.3709 6.99821 15
    endloop
  endfacet
  facet normal -0.142315 0.989821 0
    outer loop
      vertex 9.53036 6.73359 15
      vertex 11.3709 6.99821 12.8
      vertex 9.53036 6.73359 12.8
    endloop
  endfacet
  facet normal 0 0 1
    outer loop
      vertex 12.7761 11.7841 12.8
      vertex 12.7761 8.21589 12.8
      vertex 13.3 10 12.8
    endloop
  endfacet
  facet normal 0 0 1
    outer loop
      vertex 11.3709 13.0018 12.8
      vertex 12.7761 8.21589 12.8
      vertex 12.7761 11.7841 12.8
    endloop
  endfacet
  facet normal 0 0 1
    outer loop
      vertex 11.3709 13.0018 12.8
      vertex 11.3709 6.99821 12.8
      vertex 12.7761 8.21589 12.8
    endloop
  endfacet
  facet normal 0 0 1
    outer loop
      vertex 9.53036 13.2664 12.8
      vertex 11.3709 6.99821 12.8
      vertex 11.3709 13.0018 12.8
    endloop
  endfacet
  facet normal 0 0 1
    outer loop
      vertex 9.53036 13.2664 12.8
      vertex 9.53036 6.73359 12.8
      vertex 11.3709 6.99821 12.8
    endloop
  endfacet
  facet normal -0 0 1
    outer loop
      vertex 7.83896 12.494 12.8
      vertex 9.53036 6.73359 12.8
      vertex 9.53036 13.2664 12.8
    endloop
  endfacet
  facet normal 0 0 1
    outer loop
      vertex 7.83896 12.494 12.8
      vertex 7.83896 7.50603 12.8
      vertex 9.53036 6.73359 12.8
    endloop
  endfacet
  facet normal -0 0 1
    outer loop
      vertex 6.83367 10.9297 12.8
      vertex 7.83896 7.50603 12.8
      vertex 7.83896 12.494 12.8
    endloop
  endfacet
  facet normal 0 0 1
    outer loop
      vertex 7.83896 7.50603 12.8
      vertex 6.83367 10.9297 12.8
      vertex 6.83367 9.07028 12.8
    endloop
  endfacet
  facet normal 0.841254 -0.540641 0
    outer loop
      vertex 6.83367 10.9297 15
      vertex 7.83896 12.494 12.8
      vertex 7.83896 12.494 15
    endloop
  endfacet
  facet normal 0.841254 -0.540641 0
    outer loop
      vertex 7.83896 12.494 12.8
      vertex 6.83367 10.9297 15
      vertex 6.83367 10.9297 12.8
    endloop
  endfacet
  facet normal 0.841254 0.540641 0
    outer loop
      vertex 7.83896 7.50603 2.2
      vertex 6.83367 9.07028 0
      vertex 6.83367 9.07028 2.2
    endloop
  endfacet
  facet normal 0.841254 0.540641 0
    outer loop
      vertex 6.83367 9.07028 0
      vertex 7.83896 7.50603 2.2
      vertex 7.83896 7.50603 0
    endloop
  endfacet
  facet normal -0.654861 -0.75575 0
    outer loop
      vertex 11.3709 13.0018 0
      vertex 12.7761 11.7841 2.2
      vertex 11.3709 13.0018 2.2
    endloop
  endfacet
  facet normal -0.654861 -0.75575 -0
    outer loop
      vertex 12.7761 11.7841 2.2
      vertex 11.3709 13.0018 0
      vertex 12.7761 11.7841 0
    endloop
  endfacet
  facet normal -0.959493 -0.281732 0
    outer loop
      vertex 13.3 10 0
      vertex 12.7761 11.7841 2.2
      vertex 12.7761 11.7841 0
    endloop
  endfacet
  facet normal -0.959493 -0.281732 0
    outer loop
      vertex 12.7761 11.7841 2.2
      vertex 13.3 10 0
      vertex 13.3 10 2.2
    endloop
  endfacet
  facet normal -0.142315 -0.989821 0
    outer loop
      vertex 9.53036 13.2664 0
      vertex 11.3709 13.0018 2.2
      vertex 9.53036 13.2664 2.2
    endloop
  endfacet
  facet normal -0.142315 -0.989821 -0
    outer loop
      vertex 11.3709 13.0018 2.2
      vertex 9.53036 13.2664 0
      vertex 11.3709 13.0018 0
    endloop
  endfacet
  facet normal -0.654861 0.75575 0
    outer loop
      vertex 12.7761 8.21589 0
      vertex 11.3709 6.99821 2.2
      vertex 12.7761 8.21589 2.2
    endloop
  endfacet
  facet normal -0.654861 0.75575 0
    outer loop
      vertex 11.3709 6.99821 2.2
      vertex 12.7761 8.21589 0
      vertex 11.3709 6.99821 0
    endloop
  endfacet
  facet normal -0.959493 0.281732 0
    outer loop
      vertex 12.7761 8.21589 0
      vertex 13.3 10 2.2
      vertex 13.3 10 0
    endloop
  endfacet
  facet normal -0.959493 0.281732 0
    outer loop
      vertex 13.3 10 2.2
      vertex 12.7761 8.21589 0
      vertex 12.7761 8.21589 2.2
    endloop
  endfacet
  facet normal 0.415415 -0.909632 0
    outer loop
      vertex 7.83896 12.494 0
      vertex 9.53036 13.2664 2.2
      vertex 7.83896 12.494 2.2
    endloop
  endfacet
  facet normal 0.415415 -0.909632 0
    outer loop
      vertex 9.53036 13.2664 2.2
      vertex 7.83896 12.494 0
      vertex 9.53036 13.2664 0
    endloop
  endfacet
  facet normal 1 -0 0
    outer loop
      vertex 6.83367 9.07028 2.2
      vertex 6.83367 10.9297 0
      vertex 6.83367 10.9297 2.2
    endloop
  endfacet
  facet normal 1 0 0
    outer loop
      vertex 6.83367 10.9297 0
      vertex 6.83367 9.07028 2.2
      vertex 6.83367 9.07028 0
    endloop
  endfacet
  facet normal 0 0 -1
    outer loop
      vertex 12.7761 8.21589 2.2
      vertex 12.7761 11.7841 2.2
      vertex 13.3 10 2.2
    endloop
  endfacet
  facet normal 0 0 -1
    outer loop
      vertex 11.3709 6.99821 2.2
      vertex 12.7761 11.7841 2.2
      vertex 12.7761 8.21589 2.2
    endloop
  endfacet
  facet normal 0 0 -1
    outer loop
      vertex 11.3709 6.99821 2.2
      vertex 11.3709 13.0018 2.2
      vertex 12.7761 11.7841 2.2
    endloop
  endfacet
  facet normal 0 0 -1
    outer loop
      vertex 9.53036 6.73359 2.2
      vertex 11.3709 13.0018 2.2
      vertex 11.3709 6.99821 2.2
    endloop
  endfacet
  facet normal 0 0 -1
    outer loop
      vertex 9.53036 6.73359 2.2
      vertex 9.53036 13.2664 2.2
      vertex 11.3709 13.0018 2.2
    endloop
  endfacet
  facet normal 0 0 -1
    outer loop
      vertex 7.83896 7.50603 2.2
      vertex 9.53036 13.2664 2.2
      vertex 9.53036 6.73359 2.2
    endloop
  endfacet
  facet normal 0 0 -1
    outer loop
      vertex 7.83896 7.50603 2.2
      vertex 7.83896 12.494 2.2
      vertex 9.53036 13.2664 2.2
    endloop
  endfacet
  facet normal 0 0 -1
    outer loop
      vertex 6.83367 9.07028 2.2
      vertex 7.83896 12.494 2.2
      vertex 7.83896 7.50603 2.2
    endloop
  endfacet
  facet normal 0 0 -1
    outer loop
      vertex 7.83896 12.494 2.2
      vertex 6.83367 9.07028 2.2
      vertex 6.83367 10.9297 2.2
    endloop
  endfacet
  facet normal 0.415415 0.909632 -0
    outer loop
      vertex 9.53036 6.73359 0
      vertex 7.83896 7.50603 2.2
      vertex 9.53036 6.73359 2.2
    endloop
  endfacet
  facet normal 0.415415 0.909632 0
    outer loop
      vertex 7.83896 7.50603 2.2
      vertex 9.53036 6.73359 0
      vertex 7.83896 7.50603 0
    endloop
  endfacet
  facet normal -0.142315 0.989821 0
    outer loop
      vertex 11.3709 6.99821 0
      vertex 9.53036 6.73359 2.2
      vertex 11.3709 6.99821 2.2
    endloop
  endfacet
  facet normal -0.142315 0.989821 0
    outer loop
      vertex 9.53036 6.73359 2.2
      vertex 11.3709 6.99821 0
      vertex 9.53036 6.73359 0
    endloop
  endfacet
  facet normal 0.841254 -0.540641 0
    outer loop
      vertex 6.83367 10.9297 2.2
      vertex 7.83896 12.494 0
      vertex 7.83896 12.494 2.2
    endloop
  endfacet
  facet normal 0.841254 -0.540641 0
    outer loop
      vertex 7.83896 12.494 0
      vertex 6.83367 10.9297 2.2
      vertex 6.83367 10.9297 0
    endloop
  endfacet
  facet normal 0.743145 0.669131 0
    outer loop
      vertex 25.5139 20.925 15
      vertex 16.8409 30.5573 5
      vertex 16.8409 30.5573 15
    endloop
  endfacet
  facet normal 0.743145 0.669131 0
    outer loop
      vertex 16.8409 30.5573 5
      vertex 25.5139 20.925 15
      vertex 25.5139 20.925 5
    endloop
  endfacet
  facet normal 0.406737 0.913545 -0
    outer loop
      vertex 47.8409 8.0345 5
      vertex 36 13.3064 15
      vertex 47.8409 8.0345 15
    endloop
  endfacet
  facet normal 0.406737 0.913545 0
    outer loop
      vertex 36 13.3064 15
      vertex 47.8409 8.0345 5
      vertex 36 13.3064 5
    endloop
  endfacet
  facet normal 0.587785 0.809017 -0
    outer loop
      vertex 36 13.3064 5
      vertex 25.5139 20.925 15
      vertex 36 13.3064 15
    endloop
  endfacet
  facet normal 0.587785 0.809017 0
    outer loop
      vertex 25.5139 20.925 15
      vertex 36 13.3064 5
      vertex 25.5139 20.925 5
    endloop
  endfacet
  facet normal 0 0 1
    outer loop
      vertex 111.5 59 5
      vertex 60.2628 5.39416 5
      vertex 111.5 39 5
    endloop
  endfacet
  facet normal 0 0 1
    outer loop
      vertex 111.5 59 5
      vertex 47.8409 8.0345 5
      vertex 60.2628 5.39416 5
    endloop
  endfacet
  facet normal 0 0 1
    outer loop
      vertex 111.5 59 5
      vertex 36 13.3064 5
      vertex 47.8409 8.0345 5
    endloop
  endfacet
  facet normal -0 0 1
    outer loop
      vertex 6.26125 79 5
      vertex 111.5 59 5
      vertex 136.5 79 5
    endloop
  endfacet
  facet normal -0 0 1
    outer loop
      vertex 5 67 5
      vertex 111.5 59 5
      vertex 6.26125 79 5
    endloop
  endfacet
  facet normal 0 0 1
    outer loop
      vertex 111.5 59 5
      vertex 25.5139 20.925 5
      vertex 36 13.3064 5
    endloop
  endfacet
  facet normal 0 0 1
    outer loop
      vertex 111.5 59 5
      vertex 16.8409 30.5573 5
      vertex 25.5139 20.925 5
    endloop
  endfacet
  facet normal 0 0 1
    outer loop
      vertex 111.5 59 5
      vertex 10.3602 41.7823 5
      vertex 16.8409 30.5573 5
    endloop
  endfacet
  facet normal 0 0 1
    outer loop
      vertex 111.5 59 5
      vertex 6.35485 54.1095 5
      vertex 10.3602 41.7823 5
    endloop
  endfacet
  facet normal 0 0 1
    outer loop
      vertex 111.5 59 5
      vertex 5 67 5
      vertex 6.35485 54.1095 5
    endloop
  endfacet
  facet normal 0 0 1
    outer loop
      vertex 60.2628 5.39416 5
      vertex 136.5 9 5
      vertex 111.5 39 5
    endloop
  endfacet
  facet normal 0 0 1
    outer loop
      vertex 136.5 9 5
      vertex 60.2628 5.39416 5
      vertex 137.3 5 5
    endloop
  endfacet
  facet normal 0 0 1
    outer loop
      vertex 137.3 5 5
      vertex 60.2628 5.39416 5
      vertex 60 5 5
    endloop
  endfacet
  facet normal 0.951057 0.309017 0
    outer loop
      vertex 10.3602 41.7823 15
      vertex 6.35485 54.1095 5
      vertex 6.35485 54.1095 15
    endloop
  endfacet
  facet normal 0.951057 0.309017 0
    outer loop
      vertex 6.35485 54.1095 5
      vertex 10.3602 41.7823 15
      vertex 10.3602 41.7823 5
    endloop
  endfacet
  facet normal 0.866025 0.5 0
    outer loop
      vertex 16.8409 30.5573 15
      vertex 10.3602 41.7823 5
      vertex 10.3602 41.7823 15
    endloop
  endfacet
  facet normal 0.866025 0.5 0
    outer loop
      vertex 10.3602 41.7823 5
      vertex 16.8409 30.5573 15
      vertex 16.8409 30.5573 5
    endloop
  endfacet
  facet normal 0.994522 -0.104528 0
    outer loop
      vertex 5 67 15
      vertex 6.26125 79 5
      vertex 6.26125 79 15
    endloop
  endfacet
  facet normal 0.994522 -0.104528 0
    outer loop
      vertex 6.26125 79 5
      vertex 5 67 15
      vertex 5 67 5
    endloop
  endfacet
  facet normal 0.207912 0.978148 -0
    outer loop
      vertex 60.2628 5.39416 5
      vertex 47.8409 8.0345 15
      vertex 60.2628 5.39416 15
    endloop
  endfacet
  facet normal 0.207912 0.978148 0
    outer loop
      vertex 47.8409 8.0345 15
      vertex 60.2628 5.39416 5
      vertex 47.8409 8.0345 5
    endloop
  endfacet
  facet normal 0.994522 0.104528 0
    outer loop
      vertex 6.35485 54.1095 15
      vertex 5 67 5
      vertex 5 67 15
    endloop
  endfacet
  facet normal 0.994522 0.104528 0
    outer loop
      vertex 5 67 5
      vertex 6.35485 54.1095 15
      vertex 6.35485 54.1095 5
    endloop
  endfacet
  facet normal 0 1 -0
    outer loop
      vertex 137.3 5 5
      vertex 60 5 15
      vertex 137.3 5 15
    endloop
  endfacet
  facet normal 0 1 0
    outer loop
      vertex 60 5 15
      vertex 137.3 5 5
      vertex 60 5 5
    endloop
  endfacet
  facet normal 0.832049 -0.554703 0
    outer loop
      vertex 60 5 15
      vertex 60.2628 5.39416 5
      vertex 60.2628 5.39416 15
    endloop
  endfacet
  facet normal 0.832049 -0.554703 0
    outer loop
      vertex 60.2628 5.39416 5
      vertex 60 5 15
      vertex 60 5 5
    endloop
  endfacet
  facet normal -0.866025 -0.5 0
    outer loop
      vertex 7.41246 0 0
      vertex 0 12.8388 15
      vertex 0 12.8388 0
    endloop
  endfacet
  facet normal -0.866025 -0.5 0
    outer loop
      vertex 0 12.8388 15
      vertex 7.41246 0 0
      vertex 7.41246 0 15
    endloop
  endfacet
  facet normal 0.768221 0.640184 0
    outer loop
      vertex 136.5 9 5
      vertex 111.5 39 0
      vertex 111.5 39 5
    endloop
  endfacet
  facet normal 0.768221 0.640184 0
    outer loop
      vertex 111.5 39 0
      vertex 136.5 9 5
      vertex 136.5 9 0
    endloop
  endfacet
  facet normal 1 -0 0
    outer loop
      vertex 111.5 39 5
      vertex 111.5 59 0
      vertex 111.5 59 5
    endloop
  endfacet
  facet normal 1 0 0
    outer loop
      vertex 111.5 59 0
      vertex 111.5 39 5
      vertex 111.5 39 0
    endloop
  endfacet
  facet normal 0.624695 -0.780869 0
    outer loop
      vertex 111.5 59 0
      vertex 136.5 79 5
      vertex 111.5 59 5
    endloop
  endfacet
  facet normal 0.624695 -0.780869 0
    outer loop
      vertex 136.5 79 5
      vertex 111.5 59 0
      vertex 136.5 79 0
    endloop
  endfacet
  facet normal 0.980581 0.196116 0
    outer loop
      vertex 137.3 5 15
      vertex 138.3 0 15
      vertex 137.3 5 5
    endloop
  endfacet
  facet normal 0.980581 0.196117 0
    outer loop
      vertex 137.3 5 5
      vertex 136.5 9 0
      vertex 136.5 9 5
    endloop
  endfacet
  facet normal 0.980581 0.196116 -3.32499e-07
    outer loop
      vertex 137.3 5 5
      vertex 138.3 0 0
      vertex 136.5 9 0
    endloop
  endfacet
  facet normal 0.980581 0.196116 -0
    outer loop
      vertex 138.3 0 0
      vertex 137.3 5 5
      vertex 138.3 0 15
    endloop
  endfacet
  facet normal 0 1 0
    outer loop
      vertex 136.5 79 5
      vertex 136.5 79 0
      vertex 6.26125 79 5
    endloop
  endfacet
  facet normal 0 1 -0
    outer loop
      vertex 6.26125 79 5
      vertex 0 79 15
      vertex 6.26125 79 15
    endloop
  endfacet
  facet normal 0 1 0
    outer loop
      vertex 6.26125 79 5
      vertex 0 79 0
      vertex 0 79 15
    endloop
  endfacet
  facet normal 0 1 0
    outer loop
      vertex 0 79 0
      vertex 6.26125 79 5
      vertex 136.5 79 0
    endloop
  endfacet
endsolid OpenSCAD_Model
