<?xml version="1.0" encoding="UTF-8" standalone="no"?>
<!-- Created with Inkscape (http://www.inkscape.org/) -->

<svg
   xmlns:dc="http://purl.org/dc/elements/1.1/"
   xmlns:cc="http://creativecommons.org/ns#"
   xmlns:rdf="http://www.w3.org/1999/02/22-rdf-syntax-ns#"
   xmlns:svg="http://www.w3.org/2000/svg"
   xmlns="http://www.w3.org/2000/svg"
   xmlns:sodipodi="http://sodipodi.sourceforge.net/DTD/sodipodi-0.dtd"
   xmlns:inkscape="http://www.inkscape.org/namespaces/inkscape"
   width="210mm"
   height="297mm"
   viewBox="0 0 210 297"
   version="1.1"
   id="svg4151"
   inkscape:version="0.92.2 2405546, 2018-03-11"
   sodipodi:docname="aleph.svg">
  <defs
     id="defs4145" />
  <sodipodi:namedview
     id="base"
     pagecolor="#ffffff"
     bordercolor="#666666"
     borderopacity="1.0"
     inkscape:pageopacity="0.0"
     inkscape:pageshadow="2"
     inkscape:zoom="0.35"
     inkscape:cx="-165.71429"
     inkscape:cy="560"
     inkscape:document-units="mm"
     inkscape:current-layer="layer1"
     showgrid="false"
     inkscape:window-width="1680"
     inkscape:window-height="986"
     inkscape:window-x="0"
     inkscape:window-y="27"
     inkscape:window-maximized="1" />
  <metadata
     id="metadata4148">
    <rdf:RDF>
      <cc:Work
         rdf:about="">
        <dc:format>image/svg+xml</dc:format>
        <dc:type
           rdf:resource="http://purl.org/dc/dcmitype/StillImage" />
        <dc:title></dc:title>
      </cc:Work>
    </rdf:RDF>
  </metadata>
  <g
     inkscape:label="Layer 1"
     inkscape:groupmode="layer"
     id="layer1">
    <circle
       style="fill:#ff7f2a;stroke-width:0.26458332"
       id="path10-3-4"
       cx="78.619049"
       cy="80.798683"
       r="24" />
    <path
       style="fill:none;fill-rule:evenodd;stroke:#000000;stroke-width:0.23034187px;stroke-linecap:butt;stroke-linejoin:miter;stroke-opacity:1"
       d="m 78.734471,56.796554 v 4.999973 z"
       id="path12-6-4"
       inkscape:connector-curvature="0" />
    <path
       style="fill:none;fill-rule:evenodd;stroke:#000000;stroke-width:0.23034187px;stroke-linecap:butt;stroke-linejoin:miter;stroke-opacity:1"
       d="m 78.734471,99.796248 v 4.999942 z"
       id="path12-3-7-3"
       inkscape:connector-curvature="0" />
    <path
       style="fill:none;fill-rule:evenodd;stroke:#000000;stroke-width:0.26458332px;stroke-linecap:butt;stroke-linejoin:miter;stroke-opacity:1"
       d="M 78.761651,99.973646 Z"
       id="path31-5-0"
       inkscape:connector-curvature="0" />
    <path
       style="fill:none;fill-rule:evenodd;stroke:#000000;stroke-width:0.23034187px;stroke-linecap:butt;stroke-linejoin:miter;stroke-opacity:1"
       d="m 64.17104,61.683747 2.938931,4.045059 z"
       id="path12-5-35-7"
       inkscape:connector-curvature="0" />
    <path
       style="fill:none;fill-rule:evenodd;stroke:#000000;stroke-width:0.23034187px;stroke-linecap:butt;stroke-linejoin:miter;stroke-opacity:1"
       d="m 55.78984,73.641851 4.75528,1.545071 z"
       id="path12-5-3-6-8"
       inkscape:connector-curvature="0" />
    <path
       style="fill:#000000;stroke-width:0.11630471"
       d="m 76.637941,93.257997 c -4.61768,-0.804828 -8.49053,-4.072077 -10.07209,-8.497088 -0.5213,-1.45854 -0.74425,-2.798131 -0.74425,-4.471851 0,-4.41494 2.15818,-8.40183 5.89449,-10.88916 1.15291,-0.76751 2.41689,-1.32859 3.94882,-1.75289 1.05881,-0.29325 1.30927,-0.31743 3.24097,-0.31282 1.88616,0.004 2.2061,0.0353 3.230641,0.31108 3.784359,1.01868 6.80562,3.50091 8.526629,7.00541 0.848151,1.72709 1.21218,3.16947 1.294609,5.12959 0.0754,1.79308 -0.0765,3.02779 -0.556509,4.5237 -1.500439,4.675921 -5.458359,8.125489 -10.271741,8.95246 -1.231529,0.21158 -3.282529,0.212299 -4.491569,0.0021 z m 4.710329,-1.323699 c 1.97985,-0.410769 3.460961,-1.128089 5.158282,-2.49817 0.648618,-0.523579 2.111428,-2.10171 2.110399,-2.276779 -2.41e-4,-0.0353 -0.447091,-0.319781 -0.993069,-0.632312 -1.04939,-0.60071 -1.332651,-0.882589 -1.332651,-1.326158 0,-0.404331 0.182431,-0.673452 0.56355,-0.831321 0.303331,-0.12564 0.418891,-0.100851 1.07596,0.230849 0.40487,0.204372 0.93328,0.496052 1.174231,0.64815 l 0.438089,0.276551 0.233029,-0.456769 c 0.377701,-0.740341 0.794962,-2.343551 0.930011,-3.573271 0.232751,-2.11935 -0.14504,-4.27371 -1.10544,-6.30375 -0.657561,-1.38992 -1.31051,-2.29551 -2.45377,-3.40321 -1.815071,-1.75862 -4.2101,-2.92928 -6.52991,-3.19174 l -0.69585,-0.0787 -0.0447,1.30488 c -0.0431,1.25855 -0.0562,1.31477 -0.36873,1.58363 -0.41456,0.35658 -0.82769,0.35425 -1.18866,-0.007 -0.26899,-0.26899 -0.28548,-0.36042 -0.28548,-1.58351 v -1.298049 l -0.65889,0.0823 c -1.11259,0.13901 -2.37213,0.51767 -3.51081,1.05548 -3.16726,1.49592 -5.3154,4.04915 -6.365,7.56528 -0.41356,1.38538 -0.51648,3.68614 -0.23244,5.19595 0.15362,0.81659 0.7964,2.932341 0.93691,3.083921 0.0173,0.0186 0.52666,-0.25617 1.13204,-0.6106 0.60538,-0.354431 1.2062,-0.644422 1.33517,-0.644422 0.35999,0 0.84996,0.518242 0.84996,0.899012 0,0.495699 -0.25428,0.767979 -1.27736,1.367758 -0.51278,0.30063 -0.95658,0.585841 -0.98623,0.633802 -0.0964,0.15594 1.33741,1.736169 2.21808,2.444638 2.19141,1.76289 4.43531,2.54013 7.3727,2.553732 0.99166,0.004 1.78657,-0.0623 2.50055,-0.210452 z m -3.061789,-1.328299 c -0.23921,-0.254629 -0.25288,-0.376311 -0.25288,-2.2503 v -1.98112 l -1.97614,-1.142971 c -1.08687,-0.628629 -1.96352,-1.153769 -1.9481,-1.16699 0.0154,-0.0132 0.6299,-0.37578 1.36553,-0.80569 0.73563,-0.42991 1.42909,-0.88675 1.54104,-1.01517 0.26703,-0.30635 0.26216,-0.93276 -0.009,-1.1783 -0.38428,-0.34777 -0.80577,-0.22477 -2.28529,0.66689 l -1.42595,0.85937 -0.0734,-0.70197 c -0.0403,-0.38609 -0.0741,-1.41394 -0.075,-2.28411 l -0.002,-1.58213 -1.12171,-0.63968 c -1.79975,-1.02634 -2.12957,-1.25891 -2.25565,-1.59053 -0.14131,-0.37168 0.041,-0.9155 0.36499,-1.08892 0.43121,-0.23078 0.86008,-0.0963 2.18634,0.68552 0.74395,0.43856 1.46698,0.85727 1.60673,0.93048 0.22324,0.11692 0.48445,-5e-5 2.15164,-0.96347 l 1.89754,-1.09655 0.0582,1.70712 c 0.035,1.02734 0.11482,1.80599 0.20046,1.95543 0.29606,0.51655 1.21481,0.42821 1.42989,-0.1375 0.0628,-0.16522 0.11422,-1.02973 0.11422,-1.92111 0,-0.89138 0.0174,-1.62069 0.0388,-1.62069 0.0214,0 0.89508,0.49329 1.941632,1.09619 1.78754,1.0298 1.920819,1.08688 2.20005,0.94237 0.163488,-0.0846 0.92374,-0.52556 1.68946,-0.97989 0.765709,-0.45434 1.489379,-0.82606 1.608129,-0.82606 0.26616,0 0.895861,0.6109 0.895861,0.86911 0,0.50837 -0.365609,0.8409 -1.90703,1.73447 l -1.58211,0.91717 v 2.25214 c 0,1.72426 -0.0341,2.25209 -0.145381,2.25196 -0.08,-1e-4 -0.720209,-0.34556 -1.422789,-0.7677 -1.453261,-0.87318 -1.85258,-0.98909 -2.262882,-0.65684 -0.31009,0.2511 -0.37793,0.82715 -0.13227,1.12315 0.0804,0.0968 0.704042,0.50036 1.385971,0.89673 0.68191,0.396371 1.330841,0.782391 1.44205,0.857831 0.17426,0.1182 -0.0616,0.288431 -1.706319,1.231588 l -1.908532,1.094441 -0.0382,2.016961 -0.0382,2.016959 -0.32633,0.2805 c -0.41431,0.356129 -0.8954,0.360569 -1.22352,0.0113 z"
       id="path707"
       inkscape:connector-curvature="0" />
    <path
       style="fill:none;fill-rule:evenodd;stroke:#000000;stroke-width:0.23034187px;stroke-linecap:butt;stroke-linejoin:miter;stroke-opacity:1"
       d="m 55.83348,89.186827 4.75528,-1.54505 z"
       id="path12-5-3-5-2-6"
       inkscape:connector-curvature="0" />
    <path
       style="fill:none;fill-rule:evenodd;stroke:#000000;stroke-width:0.23034187px;stroke-linecap:butt;stroke-linejoin:miter;stroke-opacity:1"
       d="m 64.60898,100.42853 2.938921,-4.04502 z"
       id="path12-5-3-5-6-9-8"
       inkscape:connector-curvature="0" />
    <path
       style="fill:none;fill-rule:evenodd;stroke:#000000;stroke-width:0.23034187px;stroke-linecap:butt;stroke-linejoin:miter;stroke-opacity:1"
       d="M 92.720662,100.42853 89.78171,96.38351 Z"
       id="path12-5-3-5-6-3-1-8"
       inkscape:connector-curvature="0" />
    <path
       style="fill:none;fill-rule:evenodd;stroke:#000000;stroke-width:0.23034187px;stroke-linecap:butt;stroke-linejoin:miter;stroke-opacity:1"
       d="m 101.17758,89.186827 -4.75531,-1.54505 z"
       id="path12-5-3-5-6-3-6-2-4"
       inkscape:connector-curvature="0" />
    <path
       style="fill:none;fill-rule:evenodd;stroke:#000000;stroke-width:0.23034187px;stroke-linecap:butt;stroke-linejoin:miter;stroke-opacity:1"
       d="m 101.47729,73.641851 -4.7553,1.545071 z"
       id="path12-5-3-5-6-3-6-7-7-3"
       inkscape:connector-curvature="0" />
    <path
       style="fill:none;fill-rule:evenodd;stroke:#000000;stroke-width:0.23034187px;stroke-linecap:butt;stroke-linejoin:miter;stroke-opacity:1"
       d="m 93.192271,61.683747 -2.938949,4.045059 z"
       id="path12-5-3-5-6-3-6-7-5-0-1"
       inkscape:connector-curvature="0" />
    <text
       xml:space="preserve"
       style="font-style:normal;font-weight:normal;font-size:3.52777767px;line-height:0%;font-family:sans-serif;letter-spacing:0px;word-spacing:0px;fill:#000000;fill-opacity:1;stroke:none;stroke-width:0.26458332px;stroke-linecap:butt;stroke-linejoin:miter;stroke-opacity:1"
       x="77.093475"
       y="65.869682"
       id="text85-9-4"><tspan
         sodipodi:role="line"
         id="tspan83-3-9"
         x="77.093475"
         y="65.869682"
         style="font-size:4.93888903px;stroke-width:0.26458332px">0</tspan></text>
    <text
       xml:space="preserve"
       style="font-style:normal;font-weight:normal;font-size:3.52777767px;line-height:0%;font-family:sans-serif;letter-spacing:0px;word-spacing:0px;fill:#000000;fill-opacity:1;stroke:none;stroke-width:0.26458332px;stroke-linecap:butt;stroke-linejoin:miter;stroke-opacity:1"
       x="77.193497"
       y="99.012619"
       id="text85-3-6-2"><tspan
         sodipodi:role="line"
         id="tspan83-5-0-0"
         x="77.193497"
         y="99.012619"
         style="font-size:4.93888903px;stroke-width:0.26458332px">5</tspan></text>
    <text
       xml:space="preserve"
       style="font-style:normal;font-weight:normal;font-size:3.52777767px;line-height:0%;font-family:sans-serif;letter-spacing:0px;word-spacing:0px;fill:#000000;fill-opacity:1;stroke:none;stroke-width:0.26458332px;stroke-linecap:butt;stroke-linejoin:miter;stroke-opacity:1"
       x="110.06927"
       y="4.458817"
       id="text85-6-6-6"
       transform="rotate(36.000001)"><tspan
         sodipodi:role="line"
         id="tspan83-2-2-8"
         x="110.06927"
         y="4.458817"
         style="font-size:4.93888903px;stroke-width:0.26458332px">1</tspan></text>
    <text
       xml:space="preserve"
       style="font-style:normal;font-weight:normal;font-size:3.52777767px;line-height:0%;font-family:sans-serif;letter-spacing:0px;word-spacing:0px;fill:#000000;fill-opacity:1;stroke:none;stroke-width:0.26458332px;stroke-linecap:butt;stroke-linejoin:miter;stroke-opacity:1"
       x="99.997818"
       y="-64.293594"
       id="text85-6-9-6-9"
       transform="rotate(72.000001)"><tspan
         sodipodi:role="line"
         id="tspan83-2-1-1-2"
         x="99.997818"
         y="-64.293594"
         style="font-size:4.93888903px;stroke-width:0.26458332px">2</tspan></text>
    <text
       xml:space="preserve"
       style="font-style:normal;font-weight:normal;font-size:3.52777767px;line-height:0%;font-family:sans-serif;letter-spacing:0px;word-spacing:0px;fill:#000000;fill-opacity:1;stroke:none;stroke-width:0.26458332px;stroke-linecap:butt;stroke-linejoin:miter;stroke-opacity:1"
       x="52.151081"
       y="-114.38605"
       id="text85-6-9-2-8-6"
       transform="rotate(108)"><tspan
         sodipodi:role="line"
         id="tspan83-2-1-7-7-6"
         x="52.151081"
         y="-114.38605"
         style="font-size:4.93888903px;stroke-width:0.26458332px">3</tspan></text>
    <text
       xml:space="preserve"
       style="font-style:normal;font-weight:normal;font-size:3.52777767px;line-height:0%;font-family:sans-serif;letter-spacing:0px;word-spacing:0px;fill:#000000;fill-opacity:1;stroke:none;stroke-width:0.26458332px;stroke-linecap:butt;stroke-linejoin:miter;stroke-opacity:1"
       x="-17.988262"
       y="-126.18042"
       id="text85-6-9-2-0-9-4"
       transform="rotate(144)"><tspan
         sodipodi:role="line"
         id="tspan83-2-1-7-9-2-9"
         x="-17.988262"
         y="-126.18042"
         style="font-size:4.93888903px;stroke-width:0.26458332px">4</tspan></text>
    <text
       xml:space="preserve"
       style="font-style:normal;font-weight:normal;font-size:3.52777767px;line-height:0%;font-family:sans-serif;letter-spacing:0px;word-spacing:0px;fill:#000000;fill-opacity:1;stroke:none;stroke-width:0.26458332px;stroke-linecap:butt;stroke-linejoin:miter;stroke-opacity:1"
       x="-113.05421"
       y="-33.781265"
       id="text85-6-9-2-0-3-02-5"
       transform="rotate(-144)"><tspan
         sodipodi:role="line"
         id="tspan83-2-1-7-9-6-3-0"
         x="-113.05421"
         y="-33.781265"
         style="font-size:4.93888903px;stroke-width:0.26458332px">6</tspan></text>
    <text
       xml:space="preserve"
       style="font-style:normal;font-weight:normal;font-size:3.52777767px;line-height:0%;font-family:sans-serif;letter-spacing:0px;word-spacing:0px;fill:#000000;fill-opacity:1;stroke:none;stroke-width:0.26458332px;stroke-linecap:butt;stroke-linejoin:miter;stroke-opacity:1"
       x="-102.94247"
       y="-30.725462"
       id="text85-6-9-2-0-3-0-7-4"
       transform="rotate(-144)"><tspan
         sodipodi:role="line"
         id="tspan83-2-1-7-9-6-6-5-8"
         x="-102.94247"
         y="-30.725462"
         style="font-size:4.93888903px;stroke-width:0.26458332px">7</tspan></text>
    <text
       xml:space="preserve"
       style="font-style:normal;font-weight:normal;font-size:3.52777767px;line-height:0%;font-family:sans-serif;letter-spacing:0px;word-spacing:0px;fill:#000000;fill-opacity:1;stroke:none;stroke-width:0.26458332px;stroke-linecap:butt;stroke-linejoin:miter;stroke-opacity:1"
       x="-54.256943"
       y="85.159065"
       id="text85-6-9-2-0-3-0-2-9-7"
       transform="rotate(-72.000001)"><tspan
         sodipodi:role="line"
         id="tspan83-2-1-7-9-6-6-6-2-1"
         x="-54.256943"
         y="85.159065"
         style="font-size:4.93888903px;stroke-width:0.26458332px">8</tspan></text>
    <text
       xml:space="preserve"
       style="font-style:normal;font-weight:normal;font-size:3.52777767px;line-height:0%;font-family:sans-serif;letter-spacing:0px;word-spacing:0px;fill:#000000;fill-opacity:1;stroke:none;stroke-width:0.26458332px;stroke-linecap:butt;stroke-linejoin:miter;stroke-opacity:1"
       x="14.256276"
       y="96.577301"
       id="text85-6-9-2-0-3-0-2-1-2-7"
       transform="rotate(-36.000001)"><tspan
         sodipodi:role="line"
         id="tspan83-2-1-7-9-6-6-6-8-8-2"
         x="14.256276"
         y="96.577301"
         style="font-size:4.93888903px;stroke-width:0.26458332px">9</tspan></text>
  </g>
</svg>
