<?xml version="1.0" encoding="UTF-8" standalone="no"?>
<!-- Created with Inkscape (http://www.inkscape.org/) -->

<svg
   xmlns:dc="http://purl.org/dc/elements/1.1/"
   xmlns:cc="http://creativecommons.org/ns#"
   xmlns:rdf="http://www.w3.org/1999/02/22-rdf-syntax-ns#"
   xmlns:svg="http://www.w3.org/2000/svg"
   xmlns="http://www.w3.org/2000/svg"
   xmlns:sodipodi="http://sodipodi.sourceforge.net/DTD/sodipodi-0.dtd"
   xmlns:inkscape="http://www.inkscape.org/namespaces/inkscape"
   width="210mm"
   height="297mm"
   viewBox="0 0 210 297"
   version="1.1"
   id="svg3856"
   inkscape:version="0.92.2 2405546, 2018-03-11"
   sodipodi:docname="infinity_n.svg">
  <defs
     id="defs3850" />
  <sodipodi:namedview
     id="base"
     pagecolor="#ffffff"
     bordercolor="#666666"
     borderopacity="1.0"
     inkscape:pageopacity="0.0"
     inkscape:pageshadow="2"
     inkscape:zoom="0.35"
     inkscape:cx="-165.71429"
     inkscape:cy="560"
     inkscape:document-units="mm"
     inkscape:current-layer="layer1"
     showgrid="false"
     inkscape:window-width="1680"
     inkscape:window-height="986"
     inkscape:window-x="0"
     inkscape:window-y="27"
     inkscape:window-maximized="1" />
  <metadata
     id="metadata3853">
    <rdf:RDF>
      <cc:Work
         rdf:about="">
        <dc:format>image/svg+xml</dc:format>
        <dc:type
           rdf:resource="http://purl.org/dc/dcmitype/StillImage" />
        <dc:title></dc:title>
      </cc:Work>
    </rdf:RDF>
  </metadata>
  <g
     inkscape:label="Layer 1"
     inkscape:groupmode="layer"
     id="layer1">
    <circle
       style="fill:#ff7f2a;stroke-width:0.26458332"
       id="path10"
       cx="70.303574"
       cy="63.411919"
       r="24" />
    <path
       style="fill:none;fill-rule:evenodd;stroke:#000000;stroke-width:0.23034184px;stroke-linecap:butt;stroke-linejoin:miter;stroke-opacity:1"
       d="m 70.418736,39.409507 v 4.999971 z"
       id="path12"
       inkscape:connector-curvature="0" />
    <path
       style="fill:none;fill-rule:evenodd;stroke:#000000;stroke-width:0.23034184px;stroke-linecap:butt;stroke-linejoin:miter;stroke-opacity:1"
       d="m 70.418736,82.40927 v 4.99996 z"
       id="path12-3"
       inkscape:connector-curvature="0" />
    <path
       style="fill:none;fill-rule:evenodd;stroke:#000000;stroke-width:0.26458332px;stroke-linecap:butt;stroke-linejoin:miter;stroke-opacity:1"
       d="M 70.445916,82.58667 Z"
       id="path31"
       inkscape:connector-curvature="0" />
    <path
       style="fill:none;fill-rule:evenodd;stroke:#000000;stroke-width:0.23034185px;stroke-linecap:butt;stroke-linejoin:miter;stroke-opacity:1"
       d="m 55.855357,44.296701 2.938926,4.045056 z"
       id="path12-5"
       inkscape:connector-curvature="0" />
    <path
       style="fill:none;fill-rule:evenodd;stroke:#000000;stroke-width:0.23034187px;stroke-linecap:butt;stroke-linejoin:miter;stroke-opacity:1"
       d="m 47.474149,56.2548 4.755281,1.54507 z"
       id="path12-5-3"
       inkscape:connector-curvature="0" />
    <path
       style="fill:none;fill-rule:evenodd;stroke:#000000;stroke-width:0.23034187px;stroke-linecap:butt;stroke-linejoin:miter;stroke-opacity:1"
       d="m 47.517793,71.79979 4.755275,-1.54506 z"
       id="path12-5-3-5"
       inkscape:connector-curvature="0" />
    <path
       style="fill:none;fill-rule:evenodd;stroke:#000000;stroke-width:0.23034187px;stroke-linecap:butt;stroke-linejoin:miter;stroke-opacity:1"
       d="M 56.293294,83.04156 59.232213,78.9965 Z"
       id="path12-5-3-5-6"
       inkscape:connector-curvature="0" />
    <path
       style="fill:none;fill-rule:evenodd;stroke:#000000;stroke-width:0.23034187px;stroke-linecap:butt;stroke-linejoin:miter;stroke-opacity:1"
       d="M 84.404844,83.04156 81.465915,78.9965 Z"
       id="path12-5-3-5-6-3"
       inkscape:connector-curvature="0" />
    <path
       style="fill:none;fill-rule:evenodd;stroke:#000000;stroke-width:0.23034187px;stroke-linecap:butt;stroke-linejoin:miter;stroke-opacity:1"
       d="M 92.861723,71.79979 88.106441,70.25473 Z"
       id="path12-5-3-5-6-3-6"
       inkscape:connector-curvature="0" />
    <path
       style="fill:none;fill-rule:evenodd;stroke:#000000;stroke-width:0.23034187px;stroke-linecap:butt;stroke-linejoin:miter;stroke-opacity:1"
       d="m 93.161435,56.2548 -4.755279,1.54507 z"
       id="path12-5-3-5-6-3-6-7"
       inkscape:connector-curvature="0" />
    <path
       style="fill:none;fill-rule:evenodd;stroke:#000000;stroke-width:0.23034187px;stroke-linecap:butt;stroke-linejoin:miter;stroke-opacity:1"
       d="m 84.876453,44.296701 -2.938928,4.045056 z"
       id="path12-5-3-5-6-3-6-7-5"
       inkscape:connector-curvature="0" />
    <text
       xml:space="preserve"
       style="font-style:normal;font-weight:normal;font-size:3.52777767px;line-height:0%;font-family:sans-serif;letter-spacing:0px;word-spacing:0px;fill:#000000;fill-opacity:1;stroke:none;stroke-width:0.26458332px;stroke-linecap:butt;stroke-linejoin:miter;stroke-opacity:1"
       x="68.778008"
       y="48.482903"
       id="text85"><tspan
         sodipodi:role="line"
         id="tspan83"
         x="68.778008"
         y="48.482903"
         style="font-size:4.93888903px;stroke-width:0.26458332px">0</tspan></text>
    <text
       xml:space="preserve"
       style="font-style:normal;font-weight:normal;font-size:3.52777767px;line-height:0%;font-family:sans-serif;letter-spacing:0px;word-spacing:0px;fill:#000000;fill-opacity:1;stroke:none;stroke-width:0.26458332px;stroke-linecap:butt;stroke-linejoin:miter;stroke-opacity:1"
       x="68.878014"
       y="81.625824"
       id="text85-3"><tspan
         sodipodi:role="line"
         id="tspan83-5"
         x="68.878014"
         y="81.625824"
         style="font-size:4.93888903px;stroke-width:0.26458332px">5</tspan></text>
    <text
       xml:space="preserve"
       style="font-style:normal;font-weight:normal;font-size:3.52777767px;line-height:0%;font-family:sans-serif;letter-spacing:0px;word-spacing:0px;fill:#000000;fill-opacity:1;stroke:none;stroke-width:0.26458332px;stroke-linecap:butt;stroke-linejoin:miter;stroke-opacity:1"
       x="93.121826"
       y="-4.7199879"
       id="text85-6"
       transform="rotate(36.000001)"><tspan
         sodipodi:role="line"
         id="tspan83-2"
         x="93.121826"
         y="-4.7199879"
         style="font-size:4.93888903px;stroke-width:0.26458332px">1</tspan></text>
    <text
       xml:space="preserve"
       style="font-style:normal;font-weight:normal;font-size:3.52777767px;line-height:0%;font-family:sans-serif;letter-spacing:0px;word-spacing:0px;fill:#000000;fill-opacity:1;stroke:none;stroke-width:0.26458332px;stroke-linecap:butt;stroke-linejoin:miter;stroke-opacity:1"
       x="80.891876"
       y="-61.757824"
       id="text85-6-9"
       transform="rotate(72.000001)"><tspan
         sodipodi:role="line"
         id="tspan83-2-1"
         x="80.891876"
         y="-61.757824"
         style="font-size:4.93888903px;stroke-width:0.26458332px">2</tspan></text>
    <text
       xml:space="preserve"
       style="font-style:normal;font-weight:normal;font-size:3.52777767px;line-height:0%;font-family:sans-serif;letter-spacing:0px;word-spacing:0px;fill:#000000;fill-opacity:1;stroke:none;stroke-width:0.26458332px;stroke-linecap:butt;stroke-linejoin:miter;stroke-opacity:1"
       x="38.184189"
       y="-101.1078"
       id="text85-6-9-2"
       transform="rotate(108)"><tspan
         sodipodi:role="line"
         id="tspan83-2-1-7"
         x="38.184189"
         y="-101.1078"
         style="font-size:4.93888903px;stroke-width:0.26458332px">3</tspan></text>
    <text
       xml:space="preserve"
       style="font-style:normal;font-weight:normal;font-size:3.52777767px;line-height:0%;font-family:sans-serif;letter-spacing:0px;word-spacing:0px;fill:#000000;fill-opacity:1;stroke:none;stroke-width:0.26458332px;stroke-linecap:butt;stroke-linejoin:miter;stroke-opacity:1"
       x="-21.480482"
       y="-107.225"
       id="text85-6-9-2-0"
       transform="rotate(144)"><tspan
         sodipodi:role="line"
         id="tspan83-2-1-7-9"
         x="-21.480482"
         y="-107.225"
         style="font-size:4.93888903px;stroke-width:0.26458332px">4</tspan></text>
    <text
       xml:space="preserve"
       style="font-style:normal;font-weight:normal;font-size:3.52777767px;line-height:0%;font-family:sans-serif;letter-spacing:0px;word-spacing:0px;fill:#000000;fill-opacity:1;stroke:none;stroke-width:0.26458332px;stroke-linecap:butt;stroke-linejoin:miter;stroke-opacity:1"
       x="-96.106743"
       y="-24.602415"
       id="text85-6-9-2-0-3"
       transform="rotate(-144)"><tspan
         sodipodi:role="line"
         id="tspan83-2-1-7-9-6"
         x="-96.106743"
         y="-24.602415"
         style="font-size:4.93888903px;stroke-width:0.26458332px">6</tspan></text>
    <text
       xml:space="preserve"
       style="font-style:normal;font-weight:normal;font-size:3.52777767px;line-height:0%;font-family:sans-serif;letter-spacing:0px;word-spacing:0px;fill:#000000;fill-opacity:1;stroke:none;stroke-width:0.26458332px;stroke-linecap:butt;stroke-linejoin:miter;stroke-opacity:1"
       x="-85.994934"
       y="-21.546614"
       id="text85-6-9-2-0-3-0"
       transform="rotate(-144)"><tspan
         sodipodi:role="line"
         id="tspan83-2-1-7-9-6-6"
         x="-85.994934"
         y="-21.546614"
         style="font-size:4.93888903px;stroke-width:0.26458332px">7</tspan></text>
    <text
       xml:space="preserve"
       style="font-style:normal;font-weight:normal;font-size:3.52777767px;line-height:0%;font-family:sans-serif;letter-spacing:0px;word-spacing:0px;fill:#000000;fill-opacity:1;stroke:none;stroke-width:0.26458332px;stroke-linecap:butt;stroke-linejoin:miter;stroke-opacity:1"
       x="-40.290039"
       y="71.879417"
       id="text85-6-9-2-0-3-0-2"
       transform="rotate(-72.000001)"><tspan
         sodipodi:role="line"
         id="tspan83-2-1-7-9-6-6-6"
         x="-40.290039"
         y="71.879417"
         style="font-size:4.93888903px;stroke-width:0.26458332px">8</tspan></text>
    <text
       xml:space="preserve"
       style="font-style:normal;font-weight:normal;font-size:3.52777767px;line-height:0%;font-family:sans-serif;letter-spacing:0px;word-spacing:0px;fill:#000000;fill-opacity:1;stroke:none;stroke-width:0.26458332px;stroke-linecap:butt;stroke-linejoin:miter;stroke-opacity:1"
       x="17.748537"
       y="77.622383"
       id="text85-6-9-2-0-3-0-2-1"
       transform="rotate(-36.000001)"><tspan
         sodipodi:role="line"
         id="tspan83-2-1-7-9-6-6-6-8"
         x="17.748537"
         y="77.622383"
         style="font-size:4.93888903px;stroke-width:0.26458332px">9</tspan></text>
    <path
       style="fill:#000000;stroke-width:0.1129019"
       d="M 68.147704,75.8374 C 62.975289,74.962 58.901946,70.99836 57.822559,65.79038 c -0.257692,-1.24336 -0.259935,-3.66804 -0.0045,-4.85478 0.839737,-3.90116 3.15545,-7.004627 6.536296,-8.759775 1.932707,-1.003354 3.701163,-1.433751 5.89113,-1.433751 1.515079,0 2.906032,0.224477 4.156143,0.670734 3.956113,1.412194 6.923132,4.595322 8.045638,8.631642 0.434146,1.5611 0.509018,4.18723 0.166671,5.84589 -1.023083,4.95683 -4.87816,8.8266 -9.790327,9.82763 -1.197649,0.24407 -3.579969,0.30492 -4.675913,0.11943 z m -4.707901,-7.06967 c 0.583909,-0.29881 0.593424,-0.36876 0.632085,-4.64861 l 0.03602,-3.98574 0.266151,-0.12127 c 0.146385,-0.0667 0.409613,-0.086 0.584955,-0.0428 0.215728,0.0531 1.742498,1.49659 4.721983,4.46453 3.948749,3.93341 4.455608,4.40018 4.911231,4.52275 0.596048,0.16034 4.059246,0.0773 4.54949,-0.1091 0.167854,-0.0638 0.406638,-0.28241 0.530621,-0.48577 0.215686,-0.35375 0.225457,-0.57141 0.225857,-5.03253 5.29e-4,-5.11598 -0.0039,-5.15017 -0.673293,-5.49642 -0.19358,-0.10011 -0.626708,-0.17109 -1.042432,-0.17084 -0.815221,4.3e-4 -1.381535,0.26929 -1.560822,0.74084 -0.0635,0.167 -0.110088,1.8766 -0.110088,4.03928 0,3.21106 -0.02527,3.78575 -0.175755,4.00064 -0.192508,0.27485 -0.594617,0.32594 -0.988909,0.12566 -0.135636,-0.0689 -2.177233,-2.046 -4.536882,-4.39354 -3.552445,-3.53424 -4.367937,-4.29097 -4.741881,-4.40018 -0.657373,-0.19198 -4.547127,-0.11112 -4.866288,0.10117 -0.553025,0.36785 -0.550809,0.34823 -0.58829,5.20497 -0.03781,4.89892 -0.004,5.27736 0.501282,5.60842 0.584223,0.3828 1.659476,0.41914 2.324982,0.0786 z m 3.354103,0.0187 c 0.175678,-0.0908 0.350978,-0.24742 0.389547,-0.34794 0.03857,-0.10052 0.07013,-1.10965 0.07013,-2.24253 V 64.1362 l -0.288622,-0.27113 c -0.423067,-0.39746 -1.11174,-0.37734 -1.473344,0.0431 -0.263104,0.30587 -0.270268,0.36723 -0.270268,2.315 0,1.65498 0.03136,2.04558 0.18143,2.25984 0.3209,0.45814 0.863208,0.57643 1.39112,0.30344 z m 8.01966,-5.70331 c 0.354933,-0.18997 0.456057,-0.75874 0.456057,-2.56512 0,-1.83705 -0.0954,-2.26678 -0.558255,-2.51447 -0.383022,-0.20499 -0.90056,-0.13543 -1.196854,0.16086 -0.274357,0.27436 -0.277127,0.29809 -0.277127,2.37606 0,2.07797 0.0026,2.10171 0.277127,2.37607 0.295961,0.29596 0.910156,0.37472 1.299052,0.1666 z"
       id="path344"
       inkscape:connector-curvature="0" />
  </g>
</svg>
