<?xml version="1.0" encoding="UTF-8" standalone="no"?>
<!-- Created with Inkscape (http://www.inkscape.org/) -->

<svg
   xmlns:dc="http://purl.org/dc/elements/1.1/"
   xmlns:cc="http://creativecommons.org/ns#"
   xmlns:rdf="http://www.w3.org/1999/02/22-rdf-syntax-ns#"
   xmlns:svg="http://www.w3.org/2000/svg"
   xmlns="http://www.w3.org/2000/svg"
   xmlns:sodipodi="http://sodipodi.sourceforge.net/DTD/sodipodi-0.dtd"
   xmlns:inkscape="http://www.inkscape.org/namespaces/inkscape"
   width="210mm"
   height="297mm"
   viewBox="0 0 210 297"
   version="1.1"
   id="svg4013"
   inkscape:version="0.92.2 2405546, 2018-03-11"
   sodipodi:docname="nomads.svg">
  <defs
     id="defs4007" />
  <sodipodi:namedview
     id="base"
     pagecolor="#ffffff"
     bordercolor="#666666"
     borderopacity="1.0"
     inkscape:pageopacity="0.0"
     inkscape:pageshadow="2"
     inkscape:zoom="0.35"
     inkscape:cx="-165.71429"
     inkscape:cy="560"
     inkscape:document-units="mm"
     inkscape:current-layer="layer1"
     showgrid="false"
     inkscape:window-width="1680"
     inkscape:window-height="986"
     inkscape:window-x="0"
     inkscape:window-y="27"
     inkscape:window-maximized="1" />
  <metadata
     id="metadata4010">
    <rdf:RDF>
      <cc:Work
         rdf:about="">
        <dc:format>image/svg+xml</dc:format>
        <dc:type
           rdf:resource="http://purl.org/dc/dcmitype/StillImage" />
        <dc:title></dc:title>
      </cc:Work>
    </rdf:RDF>
  </metadata>
  <g
     inkscape:label="Layer 1"
     inkscape:groupmode="layer"
     id="layer1">
    <circle
       style="fill:#ff7f2a;stroke-width:0.26458332"
       id="path10-3"
       cx="63.5"
       cy="153.37012"
       r="24" />
    <path
       style="fill:none;fill-rule:evenodd;stroke:#000000;stroke-width:0.23034185px;stroke-linecap:butt;stroke-linejoin:miter;stroke-opacity:1"
       d="m 63.615178,129.36798 v 4.99997 z"
       id="path12-6"
       inkscape:connector-curvature="0" />
    <path
       style="fill:none;fill-rule:evenodd;stroke:#000000;stroke-width:0.23034185px;stroke-linecap:butt;stroke-linejoin:miter;stroke-opacity:1"
       d="m 63.615178,172.36774 v 4.99997 z"
       id="path12-3-7"
       inkscape:connector-curvature="0" />
    <path
       style="fill:none;fill-rule:evenodd;stroke:#000000;stroke-width:0.26458332px;stroke-linecap:butt;stroke-linejoin:miter;stroke-opacity:1"
       d="M 63.642358,172.54514 Z"
       id="path31-5"
       inkscape:connector-curvature="0" />
    <path
       style="fill:none;fill-rule:evenodd;stroke:#000000;stroke-width:0.23034187px;stroke-linecap:butt;stroke-linejoin:miter;stroke-opacity:1"
       d="m 49.051768,134.25517 2.938926,4.04506 z"
       id="path12-5-35"
       inkscape:connector-curvature="0" />
    <path
       style="fill:none;fill-rule:evenodd;stroke:#000000;stroke-width:0.23034187px;stroke-linecap:butt;stroke-linejoin:miter;stroke-opacity:1"
       d="m 40.670564,146.21327 4.755278,1.54508 z"
       id="path12-5-3-6"
       inkscape:connector-curvature="0" />
    <path
       style="fill:none;fill-rule:evenodd;stroke:#000000;stroke-width:0.23034187px;stroke-linecap:butt;stroke-linejoin:miter;stroke-opacity:1"
       d="M 40.714208,161.75826 45.46948,160.2132 Z"
       id="path12-5-3-5-2"
       inkscape:connector-curvature="0" />
    <path
       style="fill:none;fill-rule:evenodd;stroke:#000000;stroke-width:0.23034187px;stroke-linecap:butt;stroke-linejoin:miter;stroke-opacity:1"
       d="m 49.489705,173.00003 2.938919,-4.04505 z"
       id="path12-5-3-5-6-9"
       inkscape:connector-curvature="0" />
    <path
       style="fill:none;fill-rule:evenodd;stroke:#000000;stroke-width:0.23034187px;stroke-linecap:butt;stroke-linejoin:miter;stroke-opacity:1"
       d="m 77.601368,173.00003 -2.938949,-4.04505 z"
       id="path12-5-3-5-6-3-1"
       inkscape:connector-curvature="0" />
    <path
       style="fill:none;fill-rule:evenodd;stroke:#000000;stroke-width:0.23034187px;stroke-linecap:butt;stroke-linejoin:miter;stroke-opacity:1"
       d="M 86.05829,161.75826 81.302979,160.2132 Z"
       id="path12-5-3-5-6-3-6-2"
       inkscape:connector-curvature="0" />
    <path
       style="fill:none;fill-rule:evenodd;stroke:#000000;stroke-width:0.23034187px;stroke-linecap:butt;stroke-linejoin:miter;stroke-opacity:1"
       d="m 86.357999,146.21327 -4.7553,1.54508 z"
       id="path12-5-3-5-6-3-6-7-7"
       inkscape:connector-curvature="0" />
    <path
       style="fill:none;fill-rule:evenodd;stroke:#000000;stroke-width:0.23034187px;stroke-linecap:butt;stroke-linejoin:miter;stroke-opacity:1"
       d="m 78.07298,134.25517 -2.938952,4.04506 z"
       id="path12-5-3-5-6-3-6-7-5-0"
       inkscape:connector-curvature="0" />
    <text
       xml:space="preserve"
       style="font-style:normal;font-weight:normal;font-size:3.52777767px;line-height:0%;font-family:sans-serif;letter-spacing:0px;word-spacing:0px;fill:#000000;fill-opacity:1;stroke:none;stroke-width:0.26458332px;stroke-linecap:butt;stroke-linejoin:miter;stroke-opacity:1"
       x="61.974411"
       y="138.44112"
       id="text85-9"><tspan
         sodipodi:role="line"
         id="tspan83-3"
         x="61.974411"
         y="138.44112"
         style="font-size:4.93888903px;stroke-width:0.26458332px">0</tspan></text>
    <text
       xml:space="preserve"
       style="font-style:normal;font-weight:normal;font-size:3.52777767px;line-height:0%;font-family:sans-serif;letter-spacing:0px;word-spacing:0px;fill:#000000;fill-opacity:1;stroke:none;stroke-width:0.26458332px;stroke-linecap:butt;stroke-linejoin:miter;stroke-opacity:1"
       x="62.07444"
       y="171.58403"
       id="text85-3-6"><tspan
         sodipodi:role="line"
         id="tspan83-5-0"
         x="62.07444"
         y="171.58403"
         style="font-size:4.93888903px;stroke-width:0.26458332px">5</tspan></text>
    <text
       xml:space="preserve"
       style="font-style:normal;font-weight:normal;font-size:3.52777767px;line-height:0%;font-family:sans-serif;letter-spacing:0px;word-spacing:0px;fill:#000000;fill-opacity:1;stroke:none;stroke-width:0.26458332px;stroke-linecap:butt;stroke-linejoin:miter;stroke-opacity:1"
       x="140.49396"
       y="72.057098"
       id="text85-6-6"
       transform="rotate(36.000001)"><tspan
         sodipodi:role="line"
         id="tspan83-2-2"
         x="140.49396"
         y="72.057098"
         style="font-size:4.93888903px;stroke-width:0.26458332px">1</tspan></text>
    <text
       xml:space="preserve"
       style="font-style:normal;font-weight:normal;font-size:3.52777767px;line-height:0%;font-family:sans-serif;letter-spacing:0px;word-spacing:0px;fill:#000000;fill-opacity:1;stroke:none;stroke-width:0.26458332px;stroke-linecap:butt;stroke-linejoin:miter;stroke-opacity:1"
       x="164.34502"
       y="-27.488205"
       id="text85-6-9-6"
       transform="rotate(72.000001)"><tspan
         sodipodi:role="line"
         id="tspan83-2-1-1"
         x="164.34502"
         y="-27.488205"
         style="font-size:4.93888903px;stroke-width:0.26458332px">2</tspan></text>
    <text
       xml:space="preserve"
       style="font-style:normal;font-weight:normal;font-size:3.52777767px;line-height:0%;font-family:sans-serif;letter-spacing:0px;word-spacing:0px;fill:#000000;fill-opacity:1;stroke:none;stroke-width:0.26458332px;stroke-linecap:butt;stroke-linejoin:miter;stroke-opacity:1"
       x="125.84271"
       y="-122.43323"
       id="text85-6-9-2-8"
       transform="rotate(108)"><tspan
         sodipodi:role="line"
         id="tspan83-2-1-7-7"
         x="125.84271"
         y="-122.43323"
         style="font-size:4.93888903px;stroke-width:0.26458332px">3</tspan></text>
    <text
       xml:space="preserve"
       style="font-style:normal;font-weight:normal;font-size:3.52777767px;line-height:0%;font-family:sans-serif;letter-spacing:0px;word-spacing:0px;fill:#000000;fill-opacity:1;stroke:none;stroke-width:0.26458332px;stroke-linecap:butt;stroke-linejoin:miter;stroke-opacity:1"
       x="36.899803"
       y="-176.00476"
       id="text85-6-9-2-0-9"
       transform="rotate(144)"><tspan
         sodipodi:role="line"
         id="tspan83-2-1-7-9-2"
         x="36.899803"
         y="-176.00476"
         style="font-size:4.93888903px;stroke-width:0.26458332px">4</tspan></text>
    <text
       xml:space="preserve"
       style="font-style:normal;font-weight:normal;font-size:3.52777767px;line-height:0%;font-family:sans-serif;letter-spacing:0px;word-spacing:0px;fill:#000000;fill-opacity:1;stroke:none;stroke-width:0.26458332px;stroke-linecap:butt;stroke-linejoin:miter;stroke-opacity:1"
       x="-143.47891"
       y="-101.37958"
       id="text85-6-9-2-0-3-02"
       transform="rotate(-144)"><tspan
         sodipodi:role="line"
         id="tspan83-2-1-7-9-6-3"
         x="-143.47891"
         y="-101.37958"
         style="font-size:4.93888903px;stroke-width:0.26458332px">6</tspan></text>
    <text
       xml:space="preserve"
       style="font-style:normal;font-weight:normal;font-size:3.52777767px;line-height:0%;font-family:sans-serif;letter-spacing:0px;word-spacing:0px;fill:#000000;fill-opacity:1;stroke:none;stroke-width:0.26458332px;stroke-linecap:butt;stroke-linejoin:miter;stroke-opacity:1"
       x="-133.36717"
       y="-98.323753"
       id="text85-6-9-2-0-3-0-7"
       transform="rotate(-144)"><tspan
         sodipodi:role="line"
         id="tspan83-2-1-7-9-6-6-5"
         x="-133.36717"
         y="-98.323753"
         style="font-size:4.93888903px;stroke-width:0.26458332px">7</tspan></text>
    <text
       xml:space="preserve"
       style="font-style:normal;font-weight:normal;font-size:3.52777767px;line-height:0%;font-family:sans-serif;letter-spacing:0px;word-spacing:0px;fill:#000000;fill-opacity:1;stroke:none;stroke-width:0.26458332px;stroke-linecap:butt;stroke-linejoin:miter;stroke-opacity:1"
       x="-127.94857"
       y="93.206245"
       id="text85-6-9-2-0-3-0-2-9"
       transform="rotate(-72.000001)"><tspan
         sodipodi:role="line"
         id="tspan83-2-1-7-9-6-6-6-2"
         x="-127.94857"
         y="93.206245"
         style="font-size:4.93888903px;stroke-width:0.26458332px">8</tspan></text>
    <text
       xml:space="preserve"
       style="font-style:normal;font-weight:normal;font-size:3.52777767px;line-height:0%;font-family:sans-serif;letter-spacing:0px;word-spacing:0px;fill:#000000;fill-opacity:1;stroke:none;stroke-width:0.26458332px;stroke-linecap:butt;stroke-linejoin:miter;stroke-opacity:1"
       x="-40.63179"
       y="146.40193"
       id="text85-6-9-2-0-3-0-2-1-2"
       transform="rotate(-36.000001)"><tspan
         sodipodi:role="line"
         id="tspan83-2-1-7-9-6-6-6-8-8"
         x="-40.63179"
         y="146.40193"
         style="font-size:4.93888903px;stroke-width:0.26458332px">9</tspan></text>
    <path
       style="fill:#000000;stroke-width:0.06295898"
       d="m 62.142838,166.00721 c -2.24362,-0.29023 -4.39025,-1.15433 -6.257151,-2.51876 -0.802284,-0.58635 -2.083141,-1.85624 -2.661008,-2.63825 -1.444789,-1.95518 -2.286407,-4.01592 -2.579754,-6.31671 -0.126272,-0.99036 -0.09448,-2.80766 0.06573,-3.75667 0.491116,-2.90939 1.797477,-5.38701 3.919658,-7.43398 1.998201,-1.92738 4.399015,-3.11022 7.226555,-3.56044 0.9522,-0.15161 2.82394,-0.15213 3.80903,-7.4e-4 1.443751,0.22141 2.570249,0.57144 3.872002,1.20308 3.51014,1.70322 6.106538,4.89023 7.047158,8.65016 1.05764,4.22771 0.0232,8.58384 -2.822519,11.88591 -2.112722,2.45151 -4.968661,3.99628 -8.251181,4.46303 -0.68941,0.098 -2.68527,0.11207 -3.36851,0.0236 z m 3.28117,-0.15737 c 5.60465,-0.72134 10.078312,-4.91284 11.19642,-10.49018 0.141531,-0.70604 0.29459,-2.36693 0.23292,-2.52763 -0.0364,-0.0948 -0.46859,-0.10349 -5.172868,-0.10349 -2.991001,0 -5.13316,-0.0236 -5.13316,-0.0566 0,-0.0311 0.827619,-0.80314 1.839169,-1.71563 1.011539,-0.91251 1.994519,-1.80343 2.184389,-1.97984 l 0.34522,-0.32075 -0.11005,-0.28814 c -0.0605,-0.15848 -0.144151,-0.31646 -0.185849,-0.35106 -0.0531,-0.0441 -1.15575,0.34373 -3.675121,1.29237 l -3.59933,1.35526 -3.51466,-1.32959 c -1.93306,-0.73126 -3.562341,-1.32922 -3.620621,-1.32877 -0.13445,7.4e-4 -0.579727,0.53838 -0.537437,0.6486 0.0174,0.0454 1.024264,0.94523 2.237418,1.99962 1.21316,1.0544 2.20783,1.95251 2.21038,1.99579 0.004,0.0624 -0.9812,0.0786 -4.727028,0.0786 h -4.731646 l 0.04001,0.80271 c 0.162232,3.25267 1.501712,6.26163 3.819069,8.57897 2.153781,2.15376 4.969715,3.49088 7.996655,3.79717 0.6292,0.0636 2.20703,0.0324 2.90609,-0.0575 z m -2.26195,-4.44876 c -0.0351,-0.0433 -0.36491,-1.66525 -0.73291,-3.60439 -0.368,-1.93911 -0.69902,-3.67498 -0.7356,-3.85746 l -0.0665,-0.33177 -2.78123,-2.42549 c -1.529667,-1.33402 -2.807591,-2.46385 -2.839841,-2.51074 -0.0726,-0.10569 0.11312,-0.41277 0.24975,-0.41277 0.0516,0 1.665841,0.59485 3.587231,1.32189 l 3.49346,1.32187 3.539922,-1.32695 3.539908,-1.32694 0.11126,0.13739 c 0.072,0.0889 0.0926,0.17068 0.0584,0.2318 -0.0291,0.0519 -1.28252,1.20353 -2.78548,2.55914 l -2.73267,2.46477 -0.758361,3.809 c -0.4171,2.09495 -0.77744,3.85858 -0.80076,3.91918 -0.0491,0.12768 -0.25351,0.14624 -0.34659,0.0315 z m 0.98882,-3.92433 c 0.41113,-2.0748 0.7667,-3.81486 0.79015,-3.8668 0.0234,-0.052 1.272102,-1.19935 2.774782,-2.54983 1.502679,-1.35045 2.732778,-2.49079 2.733558,-2.53407 7.94e-4,-0.0433 -0.0371,-0.0786 -0.0841,-0.0786 -0.0471,0 -1.62655,0.58073 -3.509979,1.29051 -1.88342,0.70979 -3.466911,1.28954 -3.518851,1.28836 -0.052,-0.002 -1.65269,-0.59239 -3.5572,-1.31381 -1.90453,-0.72141 -3.498171,-1.29815 -3.541461,-1.28163 -0.0433,0.0166 -0.077,0.0766 -0.0748,0.13349 0.002,0.0569 1.249881,1.18834 2.772791,2.51431 1.52291,1.326 2.79466,2.47342 2.82609,2.54984 0.0315,0.0764 0.37199,1.81048 0.75678,3.85349 0.3848,2.04302 0.71298,3.75472 0.72931,3.80379 0.0198,0.0595 0.0507,0.0682 0.0926,0.0263 0.0346,-0.0346 0.39929,-1.76046 0.81042,-3.83525 z"
       id="path435"
       inkscape:connector-curvature="0" />
  </g>
</svg>
