<?xml version="1.0" encoding="UTF-8" standalone="no"?>
<!-- Created with Inkscape (http://www.inkscape.org/) -->

<svg
   xmlns:dc="http://purl.org/dc/elements/1.1/"
   xmlns:cc="http://creativecommons.org/ns#"
   xmlns:rdf="http://www.w3.org/1999/02/22-rdf-syntax-ns#"
   xmlns:svg="http://www.w3.org/2000/svg"
   xmlns="http://www.w3.org/2000/svg"
   xmlns:sodipodi="http://sodipodi.sourceforge.net/DTD/sodipodi-0.dtd"
   xmlns:inkscape="http://www.inkscape.org/namespaces/inkscape"
   width="210mm"
   height="297mm"
   viewBox="0 0 210 297"
   version="1.1"
   id="svg8"
   sodipodi:docname="wheel.svg"
   inkscape:version="0.92.2 2405546, 2018-03-11">
  <defs
     id="defs2" />
  <sodipodi:namedview
     id="base"
     pagecolor="#ffffff"
     bordercolor="#666666"
     borderopacity="1.0"
     inkscape:pageopacity="0.0"
     inkscape:pageshadow="2"
     inkscape:zoom="0.73"
     inkscape:cx="90.708661"
     inkscape:cy="578.71641"
     inkscape:document-units="mm"
     inkscape:current-layer="layer1"
     showgrid="false"
     inkscape:measure-start="113.01,917.751"
     inkscape:measure-end="293.986,913.729"
     inkscape:window-width="1680"
     inkscape:window-height="986"
     inkscape:window-x="0"
     inkscape:window-y="27"
     inkscape:window-maximized="1" />
  <metadata
     id="metadata5">
    <rdf:RDF>
      <cc:Work
         rdf:about="">
        <dc:format>image/svg+xml</dc:format>
        <dc:type
           rdf:resource="http://purl.org/dc/dcmitype/StillImage" />
        <dc:title />
      </cc:Work>
    </rdf:RDF>
  </metadata>
  <g
     inkscape:label="Layer 1"
     inkscape:groupmode="layer"
     id="layer1">
    <circle
       style="fill:#ff7f2a;stroke-width:0.26458332"
       id="path10"
       cx="53.104191"
       cy="50.751442"
       r="24" />
    <path
       style="fill:none;fill-rule:evenodd;stroke:#000000;stroke-width:0.23034182px;stroke-linecap:butt;stroke-linejoin:miter;stroke-opacity:1"
       d="m 53.219355,26.749027 v 4.99997 z"
       id="path12"
       inkscape:connector-curvature="0" />
    <path
       style="fill:none;fill-rule:evenodd;stroke:#000000;stroke-width:0.23034182px;stroke-linecap:butt;stroke-linejoin:miter;stroke-opacity:1"
       d="m 53.219355,69.748784 v 4.99997 z"
       id="path12-3"
       inkscape:connector-curvature="0" />
    <path
       style="fill:none;fill-rule:evenodd;stroke:#000000;stroke-width:0.26458332px;stroke-linecap:butt;stroke-linejoin:miter;stroke-opacity:1"
       d="M 53.246536,69.926191 Z"
       id="path31"
       inkscape:connector-curvature="0" />
    <path
       style="fill:none;fill-rule:evenodd;stroke:#000000;stroke-width:0.23034184px;stroke-linecap:butt;stroke-linejoin:miter;stroke-opacity:1"
       d="m 38.655977,31.63622 2.938926,4.045056 z"
       id="path12-5"
       inkscape:connector-curvature="0" />
    <path
       style="fill:none;fill-rule:evenodd;stroke:#000000;stroke-width:0.23034185px;stroke-linecap:butt;stroke-linejoin:miter;stroke-opacity:1"
       d="m 30.274769,43.594321 4.75528,1.545071 z"
       id="path12-5-3"
       inkscape:connector-curvature="0" />
    <path
       style="fill:none;fill-rule:evenodd;stroke:#000000;stroke-width:0.23034187px;stroke-linecap:butt;stroke-linejoin:miter;stroke-opacity:1"
       d="m 30.318413,59.139314 4.755275,-1.545071 z"
       id="path12-5-3-5"
       inkscape:connector-curvature="0" />
    <path
       style="fill:none;fill-rule:evenodd;stroke:#000000;stroke-width:0.23034187px;stroke-linecap:butt;stroke-linejoin:miter;stroke-opacity:1"
       d="m 39.093914,70.381078 2.938919,-4.045056 z"
       id="path12-5-3-5-6"
       inkscape:connector-curvature="0" />
    <path
       style="fill:none;fill-rule:evenodd;stroke:#000000;stroke-width:0.23034187px;stroke-linecap:butt;stroke-linejoin:miter;stroke-opacity:1"
       d="M 67.205464,70.381078 64.266536,66.336022 Z"
       id="path12-5-3-5-6-3"
       inkscape:connector-curvature="0" />
    <path
       style="fill:none;fill-rule:evenodd;stroke:#000000;stroke-width:0.23034187px;stroke-linecap:butt;stroke-linejoin:miter;stroke-opacity:1"
       d="M 75.662342,59.139314 70.90706,57.594243 Z"
       id="path12-5-3-5-6-3-6"
       inkscape:connector-curvature="0" />
    <path
       style="fill:none;fill-rule:evenodd;stroke:#000000;stroke-width:0.23034187px;stroke-linecap:butt;stroke-linejoin:miter;stroke-opacity:1"
       d="m 75.962054,43.594321 -4.75528,1.545071 z"
       id="path12-5-3-5-6-3-6-7"
       inkscape:connector-curvature="0" />
    <path
       style="fill:none;fill-rule:evenodd;stroke:#000000;stroke-width:0.23034187px;stroke-linecap:butt;stroke-linejoin:miter;stroke-opacity:1"
       d="m 67.677071,31.63622 -2.938928,4.045056 z"
       id="path12-5-3-5-6-3-6-7-5"
       inkscape:connector-curvature="0" />
    <text
       xml:space="preserve"
       style="font-style:normal;font-weight:normal;font-size:3.52777767px;line-height:0%;font-family:sans-serif;letter-spacing:0px;word-spacing:0px;fill:#000000;fill-opacity:1;stroke:none;stroke-width:0.26458332px;stroke-linecap:butt;stroke-linejoin:miter;stroke-opacity:1"
       x="51.578629"
       y="35.822418"
       id="text85"><tspan
         sodipodi:role="line"
         id="tspan83"
         x="51.578629"
         y="35.822418"
         style="font-size:4.93888903px;stroke-width:0.26458332px">0</tspan></text>
    <text
       xml:space="preserve"
       style="font-style:normal;font-weight:normal;font-size:3.52777767px;line-height:0%;font-family:sans-serif;letter-spacing:0px;word-spacing:0px;fill:#000000;fill-opacity:1;stroke:none;stroke-width:0.26458332px;stroke-linecap:butt;stroke-linejoin:miter;stroke-opacity:1"
       x="51.678631"
       y="68.96534"
       id="text85-3"><tspan
         sodipodi:role="line"
         id="tspan83-5"
         x="51.678631"
         y="68.96534"
         style="font-size:4.93888903px;stroke-width:0.26458332px">5</tspan></text>
    <text
       xml:space="preserve"
       style="font-style:normal;font-weight:normal;font-size:3.52777767px;line-height:0%;font-family:sans-serif;letter-spacing:0px;word-spacing:0px;fill:#000000;fill-opacity:1;stroke:none;stroke-width:0.26458332px;stroke-linecap:butt;stroke-linejoin:miter;stroke-opacity:1"
       x="71.765587"
       y="-4.8529916"
       id="text85-6"
       transform="rotate(36)"><tspan
         sodipodi:role="line"
         id="tspan83-2"
         x="71.765587"
         y="-4.8529916"
         style="font-size:4.93888903px;stroke-width:0.26458332px">1</tspan></text>
    <text
       xml:space="preserve"
       style="font-style:normal;font-weight:normal;font-size:3.52777767px;line-height:0%;font-family:sans-serif;letter-spacing:0px;word-spacing:0px;fill:#000000;fill-opacity:1;stroke:none;stroke-width:0.26458332px;stroke-linecap:butt;stroke-linejoin:miter;stroke-opacity:1"
       x="63.536144"
       y="-49.312546"
       id="text85-6-9"
       transform="rotate(72.000001)"><tspan
         sodipodi:role="line"
         id="tspan83-2-1"
         x="63.536144"
         y="-49.312546"
         style="font-size:4.93888903px;stroke-width:0.26458332px">2</tspan></text>
    <text
       xml:space="preserve"
       style="font-style:normal;font-weight:normal;font-size:3.52777767px;line-height:0%;font-family:sans-serif;letter-spacing:0px;word-spacing:0px;fill:#000000;fill-opacity:1;stroke:none;stroke-width:0.26458332px;stroke-linecap:butt;stroke-linejoin:miter;stroke-opacity:1"
       x="31.458248"
       y="-80.837921"
       id="text85-6-9-2"
       transform="rotate(108)"><tspan
         sodipodi:role="line"
         id="tspan83-2-1-7"
         x="31.458248"
         y="-80.837921"
         style="font-size:4.93888903px;stroke-width:0.26458332px">3</tspan></text>
    <text
       xml:space="preserve"
       style="font-style:normal;font-weight:normal;font-size:3.52777767px;line-height:0%;font-family:sans-serif;letter-spacing:0px;word-spacing:0px;fill:#000000;fill-opacity:1;stroke:none;stroke-width:0.26458332px;stroke-linecap:butt;stroke-linejoin:miter;stroke-opacity:1"
       x="-15.007536"
       y="-86.872917"
       id="text85-6-9-2-0"
       transform="rotate(144)"><tspan
         sodipodi:role="line"
         id="tspan83-2-1-7-9"
         x="-15.007536"
         y="-86.872917"
         style="font-size:4.93888903px;stroke-width:0.26458332px">4</tspan></text>
    <text
       xml:space="preserve"
       style="font-style:normal;font-weight:normal;font-size:3.52777767px;line-height:0%;font-family:sans-serif;letter-spacing:0px;word-spacing:0px;fill:#000000;fill-opacity:1;stroke:none;stroke-width:0.26458332px;stroke-linecap:butt;stroke-linejoin:miter;stroke-opacity:1"
       x="-74.750511"
       y="-24.469412"
       id="text85-6-9-2-0-3"
       transform="rotate(-144)"><tspan
         sodipodi:role="line"
         id="tspan83-2-1-7-9-6"
         x="-74.750511"
         y="-24.469412"
         style="font-size:4.93888903px;stroke-width:0.26458332px">6</tspan></text>
    <text
       xml:space="preserve"
       style="font-style:normal;font-weight:normal;font-size:3.52777767px;line-height:0%;font-family:sans-serif;letter-spacing:0px;word-spacing:0px;fill:#000000;fill-opacity:1;stroke:none;stroke-width:0.26458332px;stroke-linecap:butt;stroke-linejoin:miter;stroke-opacity:1"
       x="-64.638702"
       y="-21.41361"
       id="text85-6-9-2-0-3-0"
       transform="rotate(-144)"><tspan
         sodipodi:role="line"
         id="tspan83-2-1-7-9-6-6"
         x="-64.638702"
         y="-21.41361"
         style="font-size:4.93888903px;stroke-width:0.26458332px">7</tspan></text>
    <text
       xml:space="preserve"
       style="font-style:normal;font-weight:normal;font-size:3.52777767px;line-height:0%;font-family:sans-serif;letter-spacing:0px;word-spacing:0px;fill:#000000;fill-opacity:1;stroke:none;stroke-width:0.26458332px;stroke-linecap:butt;stroke-linejoin:miter;stroke-opacity:1"
       x="-33.564106"
       y="51.609531"
       id="text85-6-9-2-0-3-0-2"
       transform="rotate(-72)"><tspan
         sodipodi:role="line"
         id="tspan83-2-1-7-9-6-6-6"
         x="-33.564106"
         y="51.609531"
         style="font-size:4.93888903px;stroke-width:0.26458332px">8</tspan></text>
    <text
       xml:space="preserve"
       style="font-style:normal;font-weight:normal;font-size:3.52777767px;line-height:0%;font-family:sans-serif;letter-spacing:0px;word-spacing:0px;fill:#000000;fill-opacity:1;stroke:none;stroke-width:0.26458332px;stroke-linecap:butt;stroke-linejoin:miter;stroke-opacity:1"
       x="11.275592"
       y="57.270298"
       id="text85-6-9-2-0-3-0-2-1"
       transform="rotate(-36.000001)"><tspan
         sodipodi:role="line"
         id="tspan83-2-1-7-9-6-6-6-8"
         x="11.275592"
         y="57.270298"
         style="font-size:4.93888903px;stroke-width:0.26458332px">9</tspan></text>
    <path
       style="fill:#000000;stroke-width:0.1129019"
       d="m 50.948324,63.17692 c -5.172415,-0.875404 -9.245758,-4.839043 -10.325145,-10.047023 -0.257692,-1.243354 -0.259935,-3.668039 -0.0045,-4.854773 0.839737,-3.901166 3.15545,-7.004631 6.536296,-8.759779 1.932707,-1.003354 3.701163,-1.433751 5.891129,-1.433751 1.51508,0 2.906032,0.224477 4.156143,0.670734 3.956114,1.412194 6.923133,4.595326 8.045639,8.631642 0.434145,1.561101 0.509017,4.187226 0.166671,5.845887 -1.023082,4.956833 -4.87816,8.826599 -9.790326,9.827633 -1.197651,0.24407 -3.579971,0.30492 -4.675914,0.11943 z m -4.707901,-7.069671 c 0.583909,-0.298807 0.593424,-0.368757 0.632085,-4.648613 l 0.03602,-3.985736 0.266151,-0.12127 c 0.146385,-0.0667 0.409613,-0.086 0.584955,-0.0428 0.215727,0.0531 1.742498,1.496591 4.721983,4.464526 3.948747,3.933416 4.455609,4.400183 4.911231,4.522753 0.596049,0.16034 4.059246,0.0773 4.54949,-0.1091 0.167854,-0.0638 0.406636,-0.282407 0.530622,-0.485767 0.215684,-0.353757 0.225455,-0.571417 0.225856,-5.03253 4.69e-4,-5.115983 -0.0039,-5.150173 -0.673294,-5.49642 -0.193579,-0.10011 -0.626708,-0.17109 -1.042432,-0.17084 -0.81522,4.3e-4 -1.381536,0.26929 -1.560821,0.740837 -0.0635,0.167 -0.110088,1.876598 -0.110088,4.039276 0,3.211062 -0.02526,3.785759 -0.175755,4.000639 -0.192508,0.274857 -0.594616,0.325947 -0.988911,0.12567 -0.135636,-0.0689 -2.177231,-2.046001 -4.53688,-4.393546 -3.552445,-3.534239 -4.367937,-4.290966 -4.741881,-4.400176 -0.657373,-0.191987 -4.547127,-0.11112 -4.866288,0.10117 -0.553025,0.367847 -0.550809,0.348227 -0.58829,5.20497 -0.03781,4.898913 -0.004,5.27736 0.501282,5.60842 0.584223,0.382797 1.659476,0.419137 2.324982,0.0786 z m 3.354102,0.0187 c 0.175679,-0.0908 0.350978,-0.247417 0.389548,-0.347937 0.03857,-0.10052 0.07013,-1.109654 0.07013,-2.242528 v -2.059758 l -0.288622,-0.271137 c -0.423067,-0.39745 -1.11174,-0.37733 -1.473344,0.0431 -0.263104,0.305877 -0.270268,0.367237 -0.270268,2.315005 0,1.654981 0.03136,2.045578 0.18143,2.259838 0.3209,0.458137 0.863208,0.576437 1.39112,0.303447 z m 8.019659,-5.703307 c 0.354934,-0.189967 0.456058,-0.758734 0.456058,-2.565115 0,-1.837048 -0.0954,-2.266778 -0.558256,-2.514475 -0.383021,-0.20499 -0.900558,-0.13543 -1.196853,0.160867 -0.274356,0.27436 -0.277126,0.29809 -0.277126,2.376058 0,2.077968 0.0026,2.101708 0.277126,2.376068 0.295962,0.295957 0.910156,0.374717 1.299051,0.166597 z"
       id="path344"
       inkscape:connector-curvature="0" />
    <circle
       style="fill:#ff7f2a;stroke-width:0.26458332"
       id="path10-3"
       cx="106.15341"
       cy="51.015305"
       r="24" />
    <path
       style="fill:none;fill-rule:evenodd;stroke:#000000;stroke-width:0.23034184px;stroke-linecap:butt;stroke-linejoin:miter;stroke-opacity:1"
       d="m 106.26859,27.013164 v 4.999973 z"
       id="path12-6"
       inkscape:connector-curvature="0" />
    <path
       style="fill:none;fill-rule:evenodd;stroke:#000000;stroke-width:0.23034184px;stroke-linecap:butt;stroke-linejoin:miter;stroke-opacity:1"
       d="m 106.26859,70.012921 v 4.999973 z"
       id="path12-3-7"
       inkscape:connector-curvature="0" />
    <path
       style="fill:none;fill-rule:evenodd;stroke:#000000;stroke-width:0.26458332px;stroke-linecap:butt;stroke-linejoin:miter;stroke-opacity:1"
       d="M 106.29577,70.190331 Z"
       id="path31-5"
       inkscape:connector-curvature="0" />
    <path
       style="fill:none;fill-rule:evenodd;stroke:#000000;stroke-width:0.23034185px;stroke-linecap:butt;stroke-linejoin:miter;stroke-opacity:1"
       d="m 91.70518,31.900357 2.938926,4.045059 z"
       id="path12-5-35"
       inkscape:connector-curvature="0" />
    <path
       style="fill:none;fill-rule:evenodd;stroke:#000000;stroke-width:0.23034187px;stroke-linecap:butt;stroke-linejoin:miter;stroke-opacity:1"
       d="m 83.323976,43.858461 4.755278,1.545071 z"
       id="path12-5-3-6"
       inkscape:connector-curvature="0" />
    <path
       style="fill:none;fill-rule:evenodd;stroke:#000000;stroke-width:0.23034187px;stroke-linecap:butt;stroke-linejoin:miter;stroke-opacity:1"
       d="M 83.36762,59.403451 88.122892,57.85838 Z"
       id="path12-5-3-5-2"
       inkscape:connector-curvature="0" />
    <path
       style="fill:none;fill-rule:evenodd;stroke:#000000;stroke-width:0.23034187px;stroke-linecap:butt;stroke-linejoin:miter;stroke-opacity:1"
       d="m 92.143117,70.645218 2.938919,-4.045056 z"
       id="path12-5-3-5-6-9"
       inkscape:connector-curvature="0" />
    <path
       style="fill:none;fill-rule:evenodd;stroke:#000000;stroke-width:0.23034187px;stroke-linecap:butt;stroke-linejoin:miter;stroke-opacity:1"
       d="m 120.25478,70.645218 -2.93895,-4.045056 z"
       id="path12-5-3-5-6-3-1"
       inkscape:connector-curvature="0" />
    <path
       style="fill:none;fill-rule:evenodd;stroke:#000000;stroke-width:0.23034187px;stroke-linecap:butt;stroke-linejoin:miter;stroke-opacity:1"
       d="M 128.7117,59.403451 123.95639,57.85838 Z"
       id="path12-5-3-5-6-3-6-2"
       inkscape:connector-curvature="0" />
    <path
       style="fill:none;fill-rule:evenodd;stroke:#000000;stroke-width:0.23034187px;stroke-linecap:butt;stroke-linejoin:miter;stroke-opacity:1"
       d="m 129.01141,43.858461 -4.7553,1.545071 z"
       id="path12-5-3-5-6-3-6-7-7"
       inkscape:connector-curvature="0" />
    <path
       style="fill:none;fill-rule:evenodd;stroke:#000000;stroke-width:0.23034187px;stroke-linecap:butt;stroke-linejoin:miter;stroke-opacity:1"
       d="m 120.72639,31.900357 -2.93895,4.045059 z"
       id="path12-5-3-5-6-3-6-7-5-0"
       inkscape:connector-curvature="0" />
    <text
       xml:space="preserve"
       style="font-style:normal;font-weight:normal;font-size:3.52777767px;line-height:0%;font-family:sans-serif;letter-spacing:0px;word-spacing:0px;fill:#000000;fill-opacity:1;stroke:none;stroke-width:0.26458332px;stroke-linecap:butt;stroke-linejoin:miter;stroke-opacity:1"
       x="104.62782"
       y="36.086304"
       id="text85-9"><tspan
         sodipodi:role="line"
         id="tspan83-3"
         x="104.62782"
         y="36.086304"
         style="font-size:4.93888903px;stroke-width:0.26458332px">0</tspan></text>
    <text
       xml:space="preserve"
       style="font-style:normal;font-weight:normal;font-size:3.52777767px;line-height:0%;font-family:sans-serif;letter-spacing:0px;word-spacing:0px;fill:#000000;fill-opacity:1;stroke:none;stroke-width:0.26458332px;stroke-linecap:butt;stroke-linejoin:miter;stroke-opacity:1"
       x="104.72785"
       y="69.22921"
       id="text85-3-6"><tspan
         sodipodi:role="line"
         id="tspan83-5-0"
         x="104.72785"
         y="69.22921"
         style="font-size:4.93888903px;stroke-width:0.26458332px">5</tspan></text>
    <text
       xml:space="preserve"
       style="font-style:normal;font-weight:normal;font-size:3.52777767px;line-height:0%;font-family:sans-serif;letter-spacing:0px;word-spacing:0px;fill:#000000;fill-opacity:1;stroke:none;stroke-width:0.26458332px;stroke-linecap:butt;stroke-linejoin:miter;stroke-opacity:1"
       x="114.83864"
       y="-35.820732"
       id="text85-6-6"
       transform="rotate(36.000001)"><tspan
         sodipodi:role="line"
         id="tspan83-2-2"
         x="114.83864"
         y="-35.820732"
         style="font-size:4.93888903px;stroke-width:0.26458332px">1</tspan></text>
    <text
       xml:space="preserve"
       style="font-style:normal;font-weight:normal;font-size:3.52777767px;line-height:0%;font-family:sans-serif;letter-spacing:0px;word-spacing:0px;fill:#000000;fill-opacity:1;stroke:none;stroke-width:0.26458332px;stroke-linecap:butt;stroke-linejoin:miter;stroke-opacity:1"
       x="80.180443"
       y="-99.683388"
       id="text85-6-9-6"
       transform="rotate(72.000001)"><tspan
         sodipodi:role="line"
         id="tspan83-2-1-1"
         x="80.180443"
         y="-99.683388"
         style="font-size:4.93888903px;stroke-width:0.26458332px">2</tspan></text>
    <text
       xml:space="preserve"
       style="font-style:normal;font-weight:normal;font-size:3.52777767px;line-height:0%;font-family:sans-serif;letter-spacing:0px;word-spacing:0px;fill:#000000;fill-opacity:1;stroke:none;stroke-width:0.26458332px;stroke-linecap:butt;stroke-linejoin:miter;stroke-opacity:1"
       x="15.316871"
       y="-131.36966"
       id="text85-6-9-2-8"
       transform="rotate(108)"><tspan
         sodipodi:role="line"
         id="tspan83-2-1-7-7"
         x="15.316871"
         y="-131.36966"
         style="font-size:4.93888903px;stroke-width:0.26458332px">3</tspan></text>
    <text
       xml:space="preserve"
       style="font-style:normal;font-weight:normal;font-size:3.52777767px;line-height:0%;font-family:sans-serif;letter-spacing:0px;word-spacing:0px;fill:#000000;fill-opacity:1;stroke:none;stroke-width:0.26458332px;stroke-linecap:butt;stroke-linejoin:miter;stroke-opacity:1"
       x="-57.770184"
       y="-118.26903"
       id="text85-6-9-2-0-9"
       transform="rotate(144)"><tspan
         sodipodi:role="line"
         id="tspan83-2-1-7-9-2"
         x="-57.770184"
         y="-118.26903"
         style="font-size:4.93888903px;stroke-width:0.26458332px">4</tspan></text>
    <text
       xml:space="preserve"
       style="font-style:normal;font-weight:normal;font-size:3.52777767px;line-height:0%;font-family:sans-serif;letter-spacing:0px;word-spacing:0px;fill:#000000;fill-opacity:1;stroke:none;stroke-width:0.26458332px;stroke-linecap:butt;stroke-linejoin:miter;stroke-opacity:1"
       x="-117.82359"
       y="6.4982591"
       id="text85-6-9-2-0-3-02"
       transform="rotate(-144)"><tspan
         sodipodi:role="line"
         id="tspan83-2-1-7-9-6-3"
         x="-117.82359"
         y="6.4982591"
         style="font-size:4.93888903px;stroke-width:0.26458332px">6</tspan></text>
    <text
       xml:space="preserve"
       style="font-style:normal;font-weight:normal;font-size:3.52777767px;line-height:0%;font-family:sans-serif;letter-spacing:0px;word-spacing:0px;fill:#000000;fill-opacity:1;stroke:none;stroke-width:0.26458332px;stroke-linecap:butt;stroke-linejoin:miter;stroke-opacity:1"
       x="-107.71185"
       y="9.55408"
       id="text85-6-9-2-0-3-0-7"
       transform="rotate(-144)"><tspan
         sodipodi:role="line"
         id="tspan83-2-1-7-9-6-6-5"
         x="-107.71185"
         y="9.55408"
         style="font-size:4.93888903px;stroke-width:0.26458332px">7</tspan></text>
    <text
       xml:space="preserve"
       style="font-style:normal;font-weight:normal;font-size:3.52777767px;line-height:0%;font-family:sans-serif;letter-spacing:0px;word-spacing:0px;fill:#000000;fill-opacity:1;stroke:none;stroke-width:0.26458332px;stroke-linecap:butt;stroke-linejoin:miter;stroke-opacity:1"
       x="-17.422726"
       y="102.14268"
       id="text85-6-9-2-0-3-0-2-9"
       transform="rotate(-72.000001)"><tspan
         sodipodi:role="line"
         id="tspan83-2-1-7-9-6-6-6-2"
         x="-17.422726"
         y="102.14268"
         style="font-size:4.93888903px;stroke-width:0.26458332px">8</tspan></text>
    <text
       xml:space="preserve"
       style="font-style:normal;font-weight:normal;font-size:3.52777767px;line-height:0%;font-family:sans-serif;letter-spacing:0px;word-spacing:0px;fill:#000000;fill-opacity:1;stroke:none;stroke-width:0.26458332px;stroke-linecap:butt;stroke-linejoin:miter;stroke-opacity:1"
       x="54.038197"
       y="88.666199"
       id="text85-6-9-2-0-3-0-2-1-2"
       transform="rotate(-36.000001)"><tspan
         sodipodi:role="line"
         id="tspan83-2-1-7-9-6-6-6-8-8"
         x="54.038197"
         y="88.666199"
         style="font-size:4.93888903px;stroke-width:0.26458332px">9</tspan></text>
    <path
       style="fill:#000000;stroke-width:0.06295898"
       d="m 104.79625,63.652397 c -2.24362,-0.290227 -4.39025,-1.154334 -6.257151,-2.518765 -0.802284,-0.586347 -2.083141,-1.856241 -2.661008,-2.638245 -1.444789,-1.955178 -2.286407,-4.015926 -2.579754,-6.316714 -0.126272,-0.990354 -0.09448,-2.807655 0.06573,-3.756669 0.491116,-2.909385 1.797477,-5.38701 3.919658,-7.433978 1.998201,-1.927378 4.399015,-3.110222 7.226555,-3.560439 0.9522,-0.15161 2.82394,-0.15213 3.80903,-7.4e-4 1.44375,0.221407 2.57025,0.571437 3.872,1.203081 3.51014,1.703221 6.10654,4.890233 7.04716,8.650162 1.05764,4.227706 0.0232,8.583832 -2.82252,11.885904 -2.11272,2.451515 -4.96866,3.996286 -8.25118,4.463033 -0.68941,0.098 -2.68527,0.11207 -3.36851,0.0236 z m 3.28117,-0.15737 c 5.60465,-0.721344 10.07831,-4.91284 11.19642,-10.49018 0.14153,-0.706044 0.29459,-2.366935 0.23292,-2.527635 -0.0364,-0.0948 -0.46859,-0.10349 -5.17287,-0.10349 -2.991,0 -5.13316,-0.0236 -5.13316,-0.0566 0,-0.0311 0.82762,-0.803134 1.83917,-1.715628 1.01154,-0.912507 1.99452,-1.803431 2.18439,-1.979841 l 0.34522,-0.320747 -0.11005,-0.288137 c -0.0605,-0.15848 -0.14415,-0.31646 -0.18585,-0.35106 -0.0531,-0.0441 -1.15575,0.34373 -3.67512,1.292364 l -3.59933,1.355261 -3.51466,-1.329591 c -1.93306,-0.731257 -3.562341,-1.329214 -3.620621,-1.328764 -0.13445,7.4e-4 -0.579727,0.538377 -0.537437,0.648597 0.0174,0.0454 1.024264,0.945234 2.237418,1.999618 1.21316,1.054404 2.20783,1.952511 2.21038,1.995788 0.004,0.0624 -0.9812,0.0786 -4.727028,0.0786 h -4.731646 l 0.04001,0.802717 c 0.162232,3.252672 1.501712,6.261624 3.819069,8.578962 2.153781,2.153765 4.969715,3.490889 7.996655,3.797176 0.6292,0.0636 2.20703,0.0324 2.90609,-0.0575 z m -2.26195,-4.448763 c -0.0351,-0.0433 -0.36491,-1.665251 -0.73291,-3.604389 -0.368,-1.939111 -0.69902,-3.674979 -0.7356,-3.857459 l -0.0665,-0.331767 -2.78123,-2.425488 c -1.529667,-1.334021 -2.807591,-2.463855 -2.839841,-2.510745 -0.0726,-0.10569 0.11312,-0.412767 0.24975,-0.412767 0.0516,0 1.665841,0.594847 3.587231,1.321891 l 3.49346,1.321864 3.53992,-1.326944 3.53991,-1.326941 0.11126,0.137387 c 0.072,0.0889 0.0926,0.17068 0.0584,0.2318 -0.0291,0.0519 -1.28252,1.203534 -2.78548,2.559145 l -2.73267,2.464768 -0.75836,3.808996 c -0.4171,2.094948 -0.77744,3.858579 -0.80076,3.919179 -0.0491,0.12768 -0.25351,0.14624 -0.34659,0.0315 z m 0.98882,-3.924329 c 0.41113,-2.074798 0.7667,-3.814856 0.79015,-3.866796 0.0234,-0.052 1.2721,-1.199354 2.77478,-2.549828 1.50268,-1.350451 2.73278,-2.490795 2.73356,-2.534075 8.2e-4,-0.0433 -0.0371,-0.0786 -0.0841,-0.0786 -0.0471,0 -1.62655,0.580727 -3.50998,1.290514 -1.88342,0.709787 -3.46691,1.289541 -3.51885,1.288361 -0.052,-0.002 -1.65269,-0.592394 -3.5572,-1.313811 -1.90453,-0.721417 -3.498171,-1.298154 -3.541461,-1.281634 -0.0433,0.0166 -0.077,0.0766 -0.0748,0.13349 0.002,0.0569 1.249881,1.188344 2.772791,2.514315 1.52291,1.325994 2.79466,2.473418 2.82609,2.549838 0.0315,0.0764 0.37199,1.810478 0.75678,3.853486 0.3848,2.043018 0.71298,3.754719 0.72931,3.803789 0.0198,0.0595 0.0507,0.0682 0.0926,0.0263 0.0346,-0.0346 0.39929,-1.760461 0.81042,-3.835249 z"
       id="path435"
       inkscape:connector-curvature="0" />
    <circle
       style="fill:#ff7f2a;stroke-width:0.26458332"
       id="path10-3-4"
       cx="158.62662"
       cy="52.033112"
       r="24" />
    <path
       style="fill:none;fill-rule:evenodd;stroke:#000000;stroke-width:0.23034185px;stroke-linecap:butt;stroke-linejoin:miter;stroke-opacity:1"
       d="m 158.74204,28.030982 v 4.999973 z"
       id="path12-6-4"
       inkscape:connector-curvature="0" />
    <path
       style="fill:none;fill-rule:evenodd;stroke:#000000;stroke-width:0.23034185px;stroke-linecap:butt;stroke-linejoin:miter;stroke-opacity:1"
       d="m 158.74204,71.030675 v 4.999943 z"
       id="path12-3-7-3"
       inkscape:connector-curvature="0" />
    <path
       style="fill:none;fill-rule:evenodd;stroke:#000000;stroke-width:0.26458332px;stroke-linecap:butt;stroke-linejoin:miter;stroke-opacity:1"
       d="M 158.76922,71.208075 Z"
       id="path31-5-0"
       inkscape:connector-curvature="0" />
    <path
       style="fill:none;fill-rule:evenodd;stroke:#000000;stroke-width:0.23034187px;stroke-linecap:butt;stroke-linejoin:miter;stroke-opacity:1"
       d="m 144.17861,32.918175 2.93893,4.045059 z"
       id="path12-5-35-7"
       inkscape:connector-curvature="0" />
    <path
       style="fill:none;fill-rule:evenodd;stroke:#000000;stroke-width:0.23034187px;stroke-linecap:butt;stroke-linejoin:miter;stroke-opacity:1"
       d="m 135.79741,44.876279 4.75528,1.545071 z"
       id="path12-5-3-6-8"
       inkscape:connector-curvature="0" />
    <path
       style="fill:#000000;stroke-width:0.11630471"
       d="m 156.64551,64.492426 c -4.61768,-0.80483 -8.49053,-4.07208 -10.07209,-8.49709 -0.5213,-1.45854 -0.74425,-2.79813 -0.74425,-4.47185 0,-4.41494 2.15818,-8.40183 5.89449,-10.88916 1.15291,-0.76751 2.41689,-1.32859 3.94882,-1.75289 1.05881,-0.29325 1.30927,-0.31743 3.24097,-0.31282 1.88616,0.004 2.2061,0.0353 3.23064,0.31108 3.78436,1.01868 6.80562,3.50091 8.52663,7.00541 0.84815,1.72709 1.21218,3.16947 1.29461,5.12959 0.0754,1.79308 -0.0765,3.02779 -0.55651,4.5237 -1.50044,4.67592 -5.45836,8.12549 -10.27174,8.95246 -1.23153,0.21158 -3.28253,0.2123 -4.49157,0.002 z m 4.71033,-1.3237 c 1.97985,-0.41077 3.46096,-1.12809 5.15828,-2.49817 0.64862,-0.52358 2.11143,-2.10171 2.1104,-2.27678 -2.4e-4,-0.0353 -0.44709,-0.31978 -0.99307,-0.63231 -1.04939,-0.60071 -1.33265,-0.88259 -1.33265,-1.32616 0,-0.40433 0.18243,-0.67345 0.56355,-0.83132 0.30333,-0.12564 0.41889,-0.10085 1.07596,0.23085 0.40487,0.20437 0.93328,0.49605 1.17423,0.64815 l 0.43809,0.27655 0.23303,-0.45677 c 0.3777,-0.74034 0.79496,-2.34355 0.93001,-3.57327 0.23275,-2.11935 -0.14504,-4.27371 -1.10544,-6.30375 -0.65756,-1.38992 -1.31051,-2.29551 -2.45377,-3.40321 -1.81507,-1.75862 -4.2101,-2.92928 -6.52991,-3.19174 l -0.69585,-0.0787 -0.0447,1.30488 c -0.0431,1.25855 -0.0562,1.31477 -0.36873,1.58363 -0.41456,0.35658 -0.82769,0.35425 -1.18866,-0.007 -0.26899,-0.26899 -0.28548,-0.36042 -0.28548,-1.58351 v -1.29805 l -0.65889,0.0823 c -1.11259,0.13901 -2.37213,0.51767 -3.51081,1.05548 -3.16726,1.49592 -5.3154,4.04915 -6.365,7.56528 -0.41356,1.38538 -0.51648,3.68614 -0.23244,5.19595 0.15362,0.81659 0.7964,2.93234 0.93691,3.08392 0.0173,0.0186 0.52666,-0.25617 1.13204,-0.6106 0.60538,-0.35443 1.2062,-0.64442 1.33517,-0.64442 0.35999,0 0.84996,0.51824 0.84996,0.89901 0,0.4957 -0.25428,0.76798 -1.27736,1.36776 -0.51278,0.30063 -0.95658,0.58584 -0.98623,0.6338 -0.0964,0.15594 1.33741,1.73617 2.21808,2.44464 2.19141,1.76289 4.43531,2.54013 7.3727,2.55373 0.99166,0.004 1.78657,-0.0623 2.50055,-0.21045 z m -3.06179,-1.3283 c -0.23921,-0.25463 -0.25288,-0.37631 -0.25288,-2.2503 v -1.98112 l -1.97614,-1.14297 c -1.08687,-0.62863 -1.96352,-1.15377 -1.9481,-1.16699 0.0154,-0.0132 0.6299,-0.37578 1.36553,-0.80569 0.73563,-0.42991 1.42909,-0.88675 1.54104,-1.01517 0.26703,-0.30635 0.26216,-0.93276 -0.009,-1.1783 -0.38428,-0.34777 -0.80577,-0.22477 -2.28529,0.66689 l -1.42595,0.85937 -0.0734,-0.70197 c -0.0403,-0.38609 -0.0741,-1.41394 -0.075,-2.28411 l -0.002,-1.58213 -1.12171,-0.63968 c -1.79975,-1.02634 -2.12957,-1.25891 -2.25565,-1.59053 -0.14131,-0.37168 0.041,-0.9155 0.36499,-1.08892 0.43121,-0.23078 0.86008,-0.0963 2.18634,0.68552 0.74395,0.43856 1.46698,0.85727 1.60673,0.93048 0.22324,0.11692 0.48445,-5e-5 2.15164,-0.96347 l 1.89754,-1.09655 0.0582,1.70712 c 0.035,1.02734 0.11482,1.80599 0.20046,1.95543 0.29606,0.51655 1.21481,0.42821 1.42989,-0.1375 0.0628,-0.16522 0.11422,-1.02973 0.11422,-1.92111 0,-0.89138 0.0174,-1.62069 0.0388,-1.62069 0.0214,0 0.89508,0.49329 1.94163,1.09619 1.78754,1.0298 1.92082,1.08688 2.20005,0.94237 0.16349,-0.0846 0.92374,-0.52556 1.68946,-0.97989 0.76571,-0.45434 1.48938,-0.82606 1.60813,-0.82606 0.26616,0 0.89586,0.6109 0.89586,0.86911 0,0.50837 -0.36561,0.8409 -1.90703,1.73447 l -1.58211,0.91717 v 2.25214 c 0,1.72426 -0.0341,2.25209 -0.14538,2.25196 -0.08,-10e-5 -0.72021,-0.34556 -1.42279,-0.7677 -1.45326,-0.87318 -1.85258,-0.98909 -2.26288,-0.65684 -0.31009,0.2511 -0.37793,0.82715 -0.13227,1.12315 0.0804,0.0968 0.70404,0.50036 1.38597,0.89673 0.68191,0.39637 1.33084,0.78239 1.44205,0.85783 0.17426,0.1182 -0.0616,0.28843 -1.70632,1.23159 l -1.90853,1.09444 -0.0382,2.01696 -0.0382,2.01696 -0.32633,0.2805 c -0.41431,0.35613 -0.8954,0.36057 -1.22352,0.0113 z"
       id="path707"
       inkscape:connector-curvature="0" />
    <path
       style="fill:none;fill-rule:evenodd;stroke:#000000;stroke-width:0.23034187px;stroke-linecap:butt;stroke-linejoin:miter;stroke-opacity:1"
       d="m 135.84105,60.421255 4.75528,-1.545051 z"
       id="path12-5-3-5-2-6"
       inkscape:connector-curvature="0" />
    <path
       style="fill:none;fill-rule:evenodd;stroke:#000000;stroke-width:0.23034187px;stroke-linecap:butt;stroke-linejoin:miter;stroke-opacity:1"
       d="m 144.61655,71.662962 2.93892,-4.045026 z"
       id="path12-5-3-5-6-9-8"
       inkscape:connector-curvature="0" />
    <path
       style="fill:none;fill-rule:evenodd;stroke:#000000;stroke-width:0.23034187px;stroke-linecap:butt;stroke-linejoin:miter;stroke-opacity:1"
       d="m 172.72823,71.662962 -2.93895,-4.045026 z"
       id="path12-5-3-5-6-3-1-8"
       inkscape:connector-curvature="0" />
    <path
       style="fill:none;fill-rule:evenodd;stroke:#000000;stroke-width:0.23034187px;stroke-linecap:butt;stroke-linejoin:miter;stroke-opacity:1"
       d="m 181.18515,60.421255 -4.75531,-1.545051 z"
       id="path12-5-3-5-6-3-6-2-4"
       inkscape:connector-curvature="0" />
    <path
       style="fill:none;fill-rule:evenodd;stroke:#000000;stroke-width:0.23034187px;stroke-linecap:butt;stroke-linejoin:miter;stroke-opacity:1"
       d="m 181.48486,44.876279 -4.7553,1.545071 z"
       id="path12-5-3-5-6-3-6-7-7-3"
       inkscape:connector-curvature="0" />
    <path
       style="fill:none;fill-rule:evenodd;stroke:#000000;stroke-width:0.23034187px;stroke-linecap:butt;stroke-linejoin:miter;stroke-opacity:1"
       d="m 173.19984,32.918175 -2.93895,4.045059 z"
       id="path12-5-3-5-6-3-6-7-5-0-1"
       inkscape:connector-curvature="0" />
    <text
       xml:space="preserve"
       style="font-style:normal;font-weight:normal;font-size:3.52777767px;line-height:0%;font-family:sans-serif;letter-spacing:0px;word-spacing:0px;fill:#000000;fill-opacity:1;stroke:none;stroke-width:0.26458332px;stroke-linecap:butt;stroke-linejoin:miter;stroke-opacity:1"
       x="157.10104"
       y="37.104111"
       id="text85-9-4"><tspan
         sodipodi:role="line"
         id="tspan83-3-9"
         x="157.10104"
         y="37.104111"
         style="font-size:4.93888903px;stroke-width:0.26458332px">0</tspan></text>
    <text
       xml:space="preserve"
       style="font-style:normal;font-weight:normal;font-size:3.52777767px;line-height:0%;font-family:sans-serif;letter-spacing:0px;word-spacing:0px;fill:#000000;fill-opacity:1;stroke:none;stroke-width:0.26458332px;stroke-linecap:butt;stroke-linejoin:miter;stroke-opacity:1"
       x="157.20107"
       y="70.247047"
       id="text85-3-6-2"><tspan
         sodipodi:role="line"
         id="tspan83-5-0-0"
         x="157.20107"
         y="70.247047"
         style="font-size:4.93888903px;stroke-width:0.26458332px">5</tspan></text>
    <text
       xml:space="preserve"
       style="font-style:normal;font-weight:normal;font-size:3.52777767px;line-height:0%;font-family:sans-serif;letter-spacing:0px;word-spacing:0px;fill:#000000;fill-opacity:1;stroke:none;stroke-width:0.26458332px;stroke-linecap:butt;stroke-linejoin:miter;stroke-opacity:1"
       x="157.88878"
       y="-65.840286"
       id="text85-6-6-6"
       transform="rotate(36.000001)"><tspan
         sodipodi:role="line"
         id="tspan83-2-2-8"
         x="157.88878"
         y="-65.840286"
         style="font-size:4.93888903px;stroke-width:0.26458332px">1</tspan></text>
    <text
       xml:space="preserve"
       style="font-style:normal;font-weight:normal;font-size:3.52777767px;line-height:0%;font-family:sans-serif;letter-spacing:0px;word-spacing:0px;fill:#000000;fill-opacity:1;stroke:none;stroke-width:0.26458332px;stroke-linecap:butt;stroke-linejoin:miter;stroke-opacity:1"
       x="97.363831"
       y="-149.27437"
       id="text85-6-9-6-9"
       transform="rotate(72.000001)"><tspan
         sodipodi:role="line"
         id="tspan83-2-1-1-2"
         x="97.363831"
         y="-149.27437"
         style="font-size:4.93888903px;stroke-width:0.26458332px">2</tspan></text>
    <text
       xml:space="preserve"
       style="font-style:normal;font-weight:normal;font-size:3.52777767px;line-height:0%;font-family:sans-serif;letter-spacing:0px;word-spacing:0px;fill:#000000;fill-opacity:1;stroke:none;stroke-width:0.26458332px;stroke-linecap:butt;stroke-linejoin:miter;stroke-opacity:1"
       x="0.069700755"
       y="-181.58873"
       id="text85-6-9-2-8-6"
       transform="rotate(108)"><tspan
         sodipodi:role="line"
         id="tspan83-2-1-7-7-6"
         x="0.069700755"
         y="-181.58873"
         style="font-size:4.93888903px;stroke-width:0.26458332px">3</tspan></text>
    <text
       xml:space="preserve"
       style="font-style:normal;font-weight:normal;font-size:3.52777767px;line-height:0%;font-family:sans-serif;letter-spacing:0px;word-spacing:0px;fill:#000000;fill-opacity:1;stroke:none;stroke-width:0.26458332px;stroke-linecap:butt;stroke-linejoin:miter;stroke-opacity:1"
       x="-99.623726"
       y="-149.93585"
       id="text85-6-9-2-0-9-4"
       transform="rotate(144)"><tspan
         sodipodi:role="line"
         id="tspan83-2-1-7-9-2-9"
         x="-99.623726"
         y="-149.93585"
         style="font-size:4.93888903px;stroke-width:0.26458332px">4</tspan></text>
    <text
       xml:space="preserve"
       style="font-style:normal;font-weight:normal;font-size:3.52777767px;line-height:0%;font-family:sans-serif;letter-spacing:0px;word-spacing:0px;fill:#000000;fill-opacity:1;stroke:none;stroke-width:0.26458332px;stroke-linecap:butt;stroke-linejoin:miter;stroke-opacity:1"
       x="-160.87372"
       y="36.517841"
       id="text85-6-9-2-0-3-02-5"
       transform="rotate(-144)"><tspan
         sodipodi:role="line"
         id="tspan83-2-1-7-9-6-3-0"
         x="-160.87372"
         y="36.517841"
         style="font-size:4.93888903px;stroke-width:0.26458332px">6</tspan></text>
    <text
       xml:space="preserve"
       style="font-style:normal;font-weight:normal;font-size:3.52777767px;line-height:0%;font-family:sans-serif;letter-spacing:0px;word-spacing:0px;fill:#000000;fill-opacity:1;stroke:none;stroke-width:0.26458332px;stroke-linecap:butt;stroke-linejoin:miter;stroke-opacity:1"
       x="-150.76198"
       y="39.573647"
       id="text85-6-9-2-0-3-0-7-4"
       transform="rotate(-144)"><tspan
         sodipodi:role="line"
         id="tspan83-2-1-7-9-6-6-5-8"
         x="-150.76198"
         y="39.573647"
         style="font-size:4.93888903px;stroke-width:0.26458332px">7</tspan></text>
    <text
       xml:space="preserve"
       style="font-style:normal;font-weight:normal;font-size:3.52777767px;line-height:0%;font-family:sans-serif;letter-spacing:0px;word-spacing:0px;fill:#000000;fill-opacity:1;stroke:none;stroke-width:0.26458332px;stroke-linecap:butt;stroke-linejoin:miter;stroke-opacity:1"
       x="-2.1755605"
       y="152.36174"
       id="text85-6-9-2-0-3-0-2-9-7"
       transform="rotate(-72.000001)"><tspan
         sodipodi:role="line"
         id="tspan83-2-1-7-9-6-6-6-2-1"
         x="-2.1755605"
         y="152.36174"
         style="font-size:4.93888903px;stroke-width:0.26458332px">8</tspan></text>
    <text
       xml:space="preserve"
       style="font-style:normal;font-weight:normal;font-size:3.52777767px;line-height:0%;font-family:sans-serif;letter-spacing:0px;word-spacing:0px;fill:#000000;fill-opacity:1;stroke:none;stroke-width:0.26458332px;stroke-linecap:butt;stroke-linejoin:miter;stroke-opacity:1"
       x="95.891739"
       y="120.33273"
       id="text85-6-9-2-0-3-0-2-1-2-7"
       transform="rotate(-36.000001)"><tspan
         sodipodi:role="line"
         id="tspan83-2-1-7-9-6-6-6-8-8-2"
         x="95.891739"
         y="120.33273"
         style="font-size:4.93888903px;stroke-width:0.26458332px">9</tspan></text>
  </g>
</svg>
